<?xml version="1.0" encoding="UTF-8" standalone="no"?>
<!-- Generator: visioncortex VTracer -->

<svg
   id="svg"
   version="1.1"
   style="display: block;"
   viewBox="0 0 2592 1632"
   sodipodi:docname="logo_dark.svg"
   inkscape:version="1.4 (e7c3feb1, 2024-10-09)"
   inkscape:export-filename="logo.png"
   inkscape:export-xdpi="100"
   inkscape:export-ydpi="100"
   xmlns:inkscape="http://www.inkscape.org/namespaces/inkscape"
   xmlns:sodipodi="http://sodipodi.sourceforge.net/DTD/sodipodi-0.dtd"
   xmlns="http://www.w3.org/2000/svg"
   xmlns:svg="http://www.w3.org/2000/svg">
  <defs
     id="defs44">
    <rect
       x="524.83438"
       y="1307.784"
       width="1515.7403"
       height="296.48678"
       id="rect45" />
    <rect
       x="395.77674"
       y="1213.1418"
       width="1798.203"
       height="369.96522"
       id="rect44" />
  </defs>
  <sodipodi:namedview
     id="namedview44"
     pagecolor="#ffffff"
     bordercolor="#000000"
     borderopacity="0.25"
     inkscape:showpageshadow="2"
     inkscape:pageopacity="0.0"
     inkscape:pagecheckerboard="0"
     inkscape:deskcolor="#d1d1d1"
     inkscape:export-bgcolor="#ffffffa5"
     inkscape:zoom="0.44159311"
     inkscape:cx="962.42444"
     inkscape:cy="732.57484"
     inkscape:window-width="1512"
     inkscape:window-height="842"
     inkscape:window-x="0"
     inkscape:window-y="33"
     inkscape:window-maximized="0"
     inkscape:current-layer="svg" />
  <path
     d="M 0,0 H 2592 V 1632 H 0 Z"
     style="fill:none"
     id="path1"
     sodipodi:nodetypes="ccccc" />
  <path
     d="m 0,0 c 3.1875,-0.4375 3.1875,-0.4375 6,0 l 2,2 c 0.228772,3.5147693 0.3314029,6.9224265 0.3125,10.4375 l -0.0083,3.033447 C 8.2047744,22.487254 7.3676433,28.352386 5,35 4.3311965,37.332722 3.6646713,39.666097 3,42 -1.135278,55.207244 -6.8155816,67.106842 -15.25,78.125 -16.82197,80.092466 -18.404408,82.051641 -20,84 l -2.070312,2.664062 c -2.30419,2.789283 -4.941826,5.0659 -7.695313,7.402344 -1.481722,1.282259 -2.930967,2.603097 -4.34375,3.960938 C -47.134783,110.4464 -62.554718,119.00139 -79,126 c -8.999935,3.69471 -18.082415,6.11201 -27.57813,8.20312 -3.26108,0.61953 -3.26108,0.61953 -5.42187,1.79688 l 2.98047,1.29297 C -91.400608,145.22721 -75.312155,154.94669 -61,168 l 3.839844,3.32422 c 20.077313,17.5543 35.329718,38.10951 48.3906247,61.32031 2.0881549,3.95966 3.8561742,7.9567 5.4921875,12.12109 0.9411841,2.38319 1.936414,4.7452 2.96093755,7.09375 C 4.2289301,262.37719 7.4897038,272.82485 10,284 l 1.195313,4.88672 c 2.640024,12.67396 3.027699,25.00879 2.9375,37.92969 -0.0077,2.02586 -0.0146,4.05172 -0.02089,6.07759 -0.02127,5.99384 -0.05457,11.98758 -0.08917,17.98136 -0.03264,5.91558 -0.05872,11.83119 -0.08513,17.74681 -0.07372,16.50578 -0.156218,33.01151 -0.242552,49.51723 C 13.13982,524.48835 12.764897,630.83762 12.4375,737.1875 l -0.01682,5.45488 C 12.27748,789.09491 12.13708,835.54745 12,882 c 4.575088,-0.77097 9.148955,-1.54897 13.722656,-2.32813 l 3.875611,-0.65283 C 49.787473,875.56921 68.304906,870.37458 87,862 l 4.859375,-2.12109 c 25.750845,-11.65633 49.929075,-28.4617 70.664065,-47.61329 2.00456,-1.83383 4.05269,-3.61997 6.11328,-5.39062 5.14659,-4.49336 9.96965,-9.29735 14.80078,-14.125 l 2.69727,-2.66016 c 5.32131,-5.30965 10.21371,-10.79822 14.91137,-16.66601 2.25032,-2.7916 4.62826,-5.43209 7.07886,-8.04883 3.49235,-3.80302 6.77394,-7.68024 9.89844,-11.79688 2.60754,-3.40113 5.29366,-6.73615 7.97656,-10.07812 2.0003,-2.49976 4.00034,-4.99973 6,-7.5 l 1.87109,-2.33203 c 3.34139,-4.22465 6.49993,-8.56469 9.63526,-12.94458 5.62617,-7.85915 11.43075,-15.49415 17.52099,-23.00464 C 266.18212,691.2702 271.06438,684.61669 276,678 c 6.05047,-8.06729 12.32898,-15.85393 18.94141,-23.46875 2.00649,-2.31657 3.99426,-4.64952 5.96093,-7 C 311.5254,634.86914 322.91763,623.12707 336,613 l 2.93359,-2.41406 C 347.67734,603.53417 357.04412,598.16521 367,593 l 3.74609,-1.97266 C 380.95794,585.9382 391.69039,581.76125 403,580 c 12.82934,-1.12803 26.27934,-1.30365 38.875,1.625 2.38974,0.74599 4.76601,1.53683 7.125,2.375 l 3.83984,1.17969 c 15.52394,5.15938 28.88111,14.66785 41.59375,24.76172 10.53486,9.03482 20.39324,18.72649 30.18628,28.54809 2.20305,2.20845 4.41144,4.41145 6.62036,6.61402 1.42676,1.42741 2.8532,2.85513 4.2793,4.2832 l 3.84693,3.85034 c 3.68822,3.81957 7.15544,7.7528 10.63354,11.76294 2.90912,2.93486 5.86838,5.80821 8.83984,8.67969 L 561,676 v 2 l 3,1 3,3 4,-1 c 2.17715,-1.66543 2.17715,-1.66543 4.375,-3.8125 4.12924,-3.83081 8.33468,-7.53746 12.625,-11.1875 4.99592,-4.26441 9.92193,-8.58966 14.78906,-13 6.71947,-6.07839 13.62718,-11.94249 20.51172,-17.83203 2.37604,-2.03482 4.74873,-4.07355 7.11719,-6.11719 C 646.87655,614.86496 663.72375,601.17745 681,588 l 3.64844,-2.8125 C 706.57357,568.4657 730.03462,552.78663 755,541 l 4,-2 h 3 l 2,-5 c 1.76567,-4.35627 3.53962,-8.70916 5.3125,-13.0625 l 1.43555,-3.5293 C 772.16157,513.93724 773.57981,510.46824 775,507 l 1.21094,-2.9707 C 794.44938,459.69724 815.27274,411.75665 848,376 l 2.73047,-3.125 c 10.78058,-12.16427 23.14566,-21.5153 37.51953,-29.125 11.17742,-4.118 21.49679,-7.07654 33.5,-7.25 11.28341,0.31412 20.98341,2.01858 31.4375,6.25 10.85378,4.93023 19.73758,11.60275 28.8125,19.25 l 2.61719,2.04687 c 3.56933,2.92568 6.43028,6.42799 9.38281,9.95313 l 2.02734,2.40234 c 16.32196,19.62772 30.12056,40.81869 43.09376,62.76172 2.8723,4.85446 5.8309,9.65418 8.7932,14.4541 2.036,3.3012 4.0622,6.60814 6.0857,9.917 l 2,3.26367 c 1.3351,2.17862 2.6684,4.35831 4,6.53906 10.4914,17.09969 22.022,33.34618 35,48.66211 l 2.0625,2.50781 c 6.9493,8.15005 15.0909,15.09224 24.3633,20.48438 4.198,2.14258 7.9917,3.8622 12.5742,5.00781 7.2872,0.41389 14.7836,0.81785 21.9805,-0.57813 8.8589,-3.26458 17.256,-9.27922 24.4531,-15.28906 9.8008,-8.88879 18.5023,-18.39831 26.3086,-29.07422 2.2268,-3.01658 4.5473,-5.93824 6.8828,-8.87109 C 1229.0009,476.22749 1241.6794,453.92777 1254,432 l 2.2188,-3.91016 c 6.4246,-11.4205 12.46,-23.02464 18.4609,-34.67187 2.6209,-5.08276 5.298,-10.13194 8.0078,-15.16797 3.7914,-7.13151 7.2769,-14.38237 10.7329,-21.67969 12.0397,-25.34323 24.8896,-50.27104 38.3965,-74.86035 2.5459,-4.64853 5.0127,-9.30606 7.3081,-14.08496 3.0188,-6.17076 6.6925,-11.89915 10.375,-17.69141 2.1687,-3.41233 4.2815,-6.84993 6.375,-10.30859 11.5184,-18.74059 24.229,-36.57846 38.125,-53.625 l 2.5508,-3.14453 C 1402.135,175.99489 1407.7174,169.23705 1414,163 l 2.832,-2.86719 c 5.5549,-5.60587 11.1727,-10.99396 17.168,-16.13281 1.646,-1.54144 3.2919,-3.08313 4.9375,-4.625 15.494,-14.10105 33.1152,-25.66288 51.0625,-36.375 l 2.6057,-1.58887 c 7.268,-4.35781 14.6564,-7.984718 22.4568,-11.28613 l 3.6675,-1.555176 C 1547.2306,76.689968 1576.2661,68.990812 1607,66 l 4.0352,-0.398438 C 1624.6418,64.524672 1638.3612,64.910125 1652,65 c 0.099,6.675167 0.1713,13.349915 0.2197,20.025635 0.02,2.272861 0.047,4.545671 0.082,6.818359 0.048,3.259164 0.071,6.517645 0.089,9.777096 l 0.063,3.09972 c 9e-4,2.85121 9e-4,2.85121 -0.4532,7.27919 l -4,1 c -0.6338,2.82116 -0.6338,2.82116 -0.5502,6.34489 l -0.063,4.23113 -0.01,4.7294 -0.056,5.00094 c -0.048,4.64709 -0.077,9.29367 -0.099,13.94091 -0.028,5.09136 -0.078,10.18251 -0.1256,15.27373 -0.091,10.23495 -0.1582,20.46994 -0.2183,30.70511 -0.051,8.57758 -0.1109,17.15506 -0.1763,25.73254 -0.9322,122.68763 -1.1601,245.38002 -1.5041,390.43871 -0.178,76.01056 -0.4356,152.02072 -0.7273,228.03093 -0.034,8.92359 -0.068,17.84718 -0.102,26.77078 -0.1211,31.93365 -0.244,63.8673 -0.3698,95.80093 h 2 v 47 c -57.4263,0.016 -114.8525,0.032 -172.2788,0.048 l -3.4055,9e-4 c -120.4605,0.032 -240.921,0.06 -361.3815,0.078 l -8.0308,0 c -56.1939,0.01 -112.38781,0.017 -168.58172,0.024 -28.22968,0 -56.45935,0.01 -84.68903,0.012 -4.25824,6e-4 -8.51647,0 -12.77471,0 -65.54107,0.01 -131.08213,0.021 -196.6232,0.04 l -4.26759,0 c -22.70486,0.01 -45.40971,0.014 -68.11456,0.02 -65.42762,0.02 -130.85524,0.038 -196.28287,0.046 l -4.08051,5e-4 c -29.56644,0 -59.13288,0.01 -88.69932,0.01 -11.89805,8e-4 -23.7961,0 -35.69414,0 l -3.94594,3e-4 c -41.89758,0 -83.79515,0.016 -125.69273,0.034 -42.23429,0.018 -84.468572,0.026 -126.702868,0.022 -5.84779,-6e-4 -11.69558,-0 -17.54337,-0 l -3.473476,-2e-4 c -18.087348,-0 -36.174676,0.01 -54.262019,0.021 -17.823487,0.013 -35.646957,0.015 -53.470447,0.01 -9.51899,-0 -19.03793,-0 -28.55692,0.01 -105.52922,0.1415 -105.52922,0.1415 -156.84251,-10.44491 -3.37153,-0.6806 -6.69872,-1.26019 -10.09375,-1.78125 -8.07473,-1.32415 -15.96163,-3.38326 -23.88672,-5.39844 l -4.82983,-1.21997 C -386.63856,983.8536 -404.9173,978.91707 -423,973 l -4.16406,-1.33594 c -6.37074,-2.19219 -12.62948,-4.63557 -18.89844,-7.10156 l -3.7207,-1.44727 C -456.02278,960.66577 -462.01728,958.03182 -468,955 c -2.44861,-0.98104 -4.89756,-1.96133 -7.35352,-2.92383 -4.72024,-1.91945 -9.30373,-4.12232 -13.89648,-6.32617 l -3.04517,-1.45728 c -6.80642,-3.29131 -13.41116,-6.82229 -19.92358,-10.66772 -2.18873,-1.27881 -4.44426,-2.44331 -6.71875,-3.5625 -35.48307,-18.01448 -68.32394,-44.16946 -97.65234,-70.875 -1.66755,-1.51349 -3.34819,-3.01263 -5.03907,-4.5 C -626.5092,850.38179 -630.77312,845.96199 -635,841 c -1.89176,-1.63083 -3.78417,-3.26092 -5.68359,-4.88281 C -654.96991,823.05954 -667.18881,807.26812 -679,792 c -1.14702,-1.45164 -2.29553,-2.90211 -3.44531,-4.35156 C -689.77578,778.37623 -696.56255,768.92263 -703,759 c -1.66557,-2.45908 -3.33225,-4.9174 -5,-7.375 -5.34079,-8.01536 -10.21004,-16.27149 -15,-24.625 l -2.20703,-3.82422 C -734.68603,706.55765 -743.67811,689.68794 -751,672 l -1.25,-2.94141 c -1.27288,-3.01052 -2.51297,-6.03316 -3.75,-9.05859 l -1.80469,-4.34375 c -4.97055,-12.14594 -9.24266,-24.43441 -13.29004,-36.91553 -0.78596,-2.37951 -1.61885,-4.74342 -2.45996,-7.104 -14.20219,-40.03483 -21.16962,-84.08949 -25.69531,-126.19922 l -0.49463,-4.56812 c -2.78214,-27.29548 -2.53924,-54.72577 -2.78143,-82.13098 -0.0512,-5.76861 -0.10597,-11.53716 -0.16582,-17.30568 -0.0263,-2.67255 -0.0472,-5.34516 -0.068,-8.01776 l -0.0507,-4.93962 -0.038,-4.31416 C -803.00968,359.734 -803.48211,355.39836 -804,351 c -0.88449,-21.55102 -0.98973,-42.94426 4,-64 l 0.66553,-2.81396 C -794.74786,265.2131 -788.16082,247.2617 -779,230 l 1.45313,-2.875 c 11.15203,-21.53497 27.79543,-40.52018 45.63671,-56.76953 C -715.97685,156.68243 -698.32173,145.28074 -679,137 c -3.6999,-1.84995 -6.75988,-2.77388 -10.75,-3.75 -20.72672,-5.43652 -39.18223,-14.7504 -56.71094,-26.96484 -13.13899,-9.887878 -25.32904,-22.510428 -34.21484,-36.308598 C -789.61687,54.679036 -795.34052,38.448254 -798.375,21 c -0.24555,-1.995772 -0.45372,-3.996487 -0.625,-6 l -0.32031,-3.640625 C -799.66157,4.5045206 -799.66157,4.5045206 -799,2 L -796.41016,0.79296875 -793,1 c 3.47266,2.3164063 3.47266,2.3164063 7.0625,5.5625 l 3.59766,3.1914063 C -779.31216,12.696598 -776.66699,15.734766 -774,19 c 1.82442,1.658565 3.65643,3.310157 5.53906,4.902344 1.83515,1.564247 3.63751,3.167124 5.42188,4.789062 14.63213,13.080237 31.41754,23.235289 49.54687,30.765625 23.03137,8.68267 46.8525,11.088824 71.24707,11.043946 3.76736,-9.83e-4 7.53274,0.04101 11.29981,0.08496 2.42968,0.0052 4.85937,0.0079 7.28906,0.0078 l 3.35925,0.04968 c 4.38192,-0.0385 8.16255,-0.249674 12.32434,-1.694199 C -605.25319,67.726145 -602.62514,66.412756 -600,65 l 3.20703,-1.570557 2.60547,-1.339599 C -571.99618,50.780272 -549.82117,40.384973 -526,33 c 4.20567,-1.392442 8.40583,-2.800442 12.60547,-4.210938 9.68001,-3.145739 19.43092,-5.504744 29.36328,-7.675781 3.07682,-0.680818 6.14535,-1.402781 9.19531,-2.195312 3.91138,-0.936022 7.7155,-1.47491 11.71094,-1.917969 6.12356,-0.720085 12.08067,-1.774798 18.125,-3 45.44487,-5.0789092 92.53396,-3.574415 137.15771,6.37207 2.80312,0.619276 5.61184,1.201302 8.42432,1.776367 12.8857,2.697859 25.19906,6.555723 37.62158,10.889161 5.44665,1.874513 10.94476,3.597196 16.43311,5.345214 4.73401,1.754592 9.24208,3.813534 13.80981,5.958008 3.65155,1.704977 7.32414,3.35414 11.0066,4.991211 12.72163,5.673499 25.3509,11.309554 37.52734,18.09375 3.07828,1.754249 3.07828,1.754249 7.01953,2.574219 7.41227,0.272207 14.83309,0.245868 22.25,0.25 l 3.2468,0.002 C -135.12005,70.236584 -120.16018,69.911404 -105,67 l 2.896,-0.552246 C -91.306724,64.337657 -80.926279,61.862399 -71,57 l 3.605469,-1.601563 C -47.433598,46.137195 -29.762425,31.188713 -14.4375,15.574219 -10.280353,11.183898 -6.3640392,6.5969239 -2.4375,2 Z"
     transform="translate(863,47)"
     style="fill:none;fill-opacity:1"
     id="path2"
     sodipodi:nodetypes="ccccccccccccccccccccccccccscsscccccccccccccccscccccccccccccccccccccccccccccccccccccccccccccccccccscccccccccccccccccccccccccccccccccccccccccccsccsscccsssssssssssssssssssscccccccccccccccccccccccccccccccccccccccccccccccccccccccccccccccccccccccccccccccccccccccccccc" />
  <path
     d="M 0,0 C 3.1875,-0.4375 3.1875,-0.4375 6,0 L 8,2 C 8.228772,5.5147693 8.3314029,8.9224265 8.3125,12.4375 L 8.3042,15.470947 C 8.2047744,22.487254 7.3676433,28.352386 5,35 4.3311965,37.332722 3.6646713,39.666097 3,42 -1.135278,55.207244 -6.8155816,67.106842 -15.25,78.125 -16.82197,80.092466 -18.404408,82.051641 -20,84 l -2.070312,2.664062 c -2.30419,2.789283 -4.941826,5.0659 -7.695313,7.402344 -1.481722,1.282259 -2.930967,2.603097 -4.34375,3.960938 C -47.134783,110.4464 -62.554718,119.00139 -79,126 c -8.999935,3.69471 -18.082415,6.11201 -27.57813,8.20312 -3.26108,0.61953 -3.26108,0.61953 -5.42187,1.79688 l 2.98047,1.29297 C -91.400608,145.22721 -75.312155,154.94669 -61,168 l 3.839844,3.32422 c 20.077313,17.5543 35.329718,38.10951 48.3906247,61.32031 2.0881549,3.95966 3.8561742,7.9567 5.4921875,12.12109 0.9411841,2.38319 1.936414,4.7452 2.96093755,7.09375 C 4.2289301,262.37719 7.4897038,272.82485 10,284 l 1.195313,4.88672 c 2.640024,12.67396 3.027699,25.00879 2.9375,37.92969 -0.0077,2.02586 -0.0146,4.05172 -0.02089,6.07759 -0.02127,5.99384 -0.05457,11.98758 -0.08917,17.98136 -0.03264,5.91558 -0.05872,11.83119 -0.08513,17.74681 -0.07372,16.50578 -0.156218,33.01151 -0.242552,49.51723 C 13.13982,524.48835 12.764897,630.83762 12.4375,737.1875 l -0.01682,5.45488 C 12.27748,789.09491 12.13708,835.54745 12,882 c 4.575088,-0.77097 9.148955,-1.54897 13.722656,-2.32813 l 3.875611,-0.65283 C 49.787473,875.56921 68.304906,870.37458 87,862 l 4.859375,-2.12109 c 25.750845,-11.65633 49.929075,-28.4617 70.664065,-47.61329 2.00456,-1.83383 4.05269,-3.61997 6.11328,-5.39062 5.14659,-4.49336 9.96965,-9.29735 14.80078,-14.125 l 2.69727,-2.66016 c 5.32131,-5.30965 10.21371,-10.79822 14.91137,-16.66601 2.25032,-2.7916 4.62826,-5.43209 7.07886,-8.04883 3.49235,-3.80302 6.77394,-7.68024 9.89844,-11.79688 2.60754,-3.40113 5.29366,-6.73615 7.97656,-10.07812 2.0003,-2.49976 4.00034,-4.99973 6,-7.5 l 1.87109,-2.33203 c 3.34139,-4.22465 6.49993,-8.56469 9.63526,-12.94458 5.62617,-7.85915 11.43075,-15.49415 17.52099,-23.00464 C 266.18212,691.2702 271.06438,684.61669 276,678 c 6.05047,-8.06729 12.32898,-15.85393 18.94141,-23.46875 2.00649,-2.31657 3.99426,-4.64952 5.96093,-7 C 311.5254,634.86914 322.91763,623.12707 336,613 l 2.93359,-2.41406 C 347.67734,603.53417 357.04412,598.16521 367,593 l 3.74609,-1.97266 C 380.95794,585.9382 391.69039,581.76125 403,580 c 12.82934,-1.12803 26.27934,-1.30365 38.875,1.625 2.38974,0.74599 4.76601,1.53683 7.125,2.375 l 3.83984,1.17969 c 15.52394,5.15938 28.88111,14.66785 41.59375,24.76172 10.53486,9.03482 20.39324,18.72649 30.18628,28.54809 2.20305,2.20845 4.41144,4.41145 6.62036,6.61402 1.42676,1.42741 2.8532,2.85513 4.2793,4.2832 l 3.84693,3.85034 c 3.68822,3.81957 7.15544,7.7528 10.63354,11.76294 2.90912,2.93486 5.86838,5.80821 8.83984,8.67969 L 561,676 v 2 l 3,1 3,3 4,-1 c 2.17715,-1.66543 2.17715,-1.66543 4.375,-3.8125 4.12924,-3.83081 8.33468,-7.53746 12.625,-11.1875 4.99592,-4.26441 9.92193,-8.58966 14.78906,-13 6.71947,-6.07839 13.62718,-11.94249 20.51172,-17.83203 2.37604,-2.03482 4.74873,-4.07355 7.11719,-6.11719 C 646.87655,614.86496 663.72375,601.17745 681,588 l 3.64844,-2.8125 C 706.57357,568.4657 730.03462,552.78663 755,541 l 4,-2 h 3 l 2,-5 c 1.76567,-4.35627 3.53962,-8.70916 5.3125,-13.0625 l 1.43555,-3.5293 C 772.16157,513.93724 773.57981,510.46824 775,507 l 1.21094,-2.9707 C 794.44938,459.69724 815.27274,411.75665 848,376 l 2.73047,-3.125 c 10.78058,-12.16427 23.14566,-21.5153 37.51953,-29.125 11.17742,-4.118 21.49679,-7.07654 33.5,-7.25 11.28341,0.31412 20.98341,2.01858 31.4375,6.25 10.85378,4.93023 19.73758,11.60275 28.8125,19.25 l 2.61719,2.04687 c 3.56933,2.92568 6.43028,6.42799 9.38281,9.95313 l 2.02734,2.40234 c 16.32196,19.62772 30.12056,40.81869 43.09376,62.76172 2.8723,4.85446 5.8309,9.65418 8.7932,14.4541 2.036,3.3012 4.0622,6.60814 6.0857,9.917 l 2,3.26367 c 1.3351,2.17862 2.6684,4.35831 4,6.53906 10.4914,17.09969 22.022,33.34618 35,48.66211 l 2.0625,2.50781 c 6.9493,8.15005 15.0909,15.09224 24.3633,20.48438 4.198,2.14258 7.9917,3.8622 12.5742,5.00781 7.2872,0.41389 14.7836,0.81785 21.9805,-0.57813 8.8589,-3.26458 17.256,-9.27922 24.4531,-15.28906 9.8008,-8.88879 18.5023,-18.39831 26.3086,-29.07422 2.2268,-3.01658 4.5473,-5.93824 6.8828,-8.87109 C 1229.0009,476.22749 1241.6794,453.92777 1254,432 l 2.2188,-3.91016 c 6.4246,-11.4205 12.46,-23.02464 18.4609,-34.67187 2.6209,-5.08276 5.298,-10.13194 8.0078,-15.16797 3.7914,-7.13151 7.2769,-14.38237 10.7329,-21.67969 12.0397,-25.34323 24.8896,-50.27104 38.3965,-74.86035 2.5459,-4.64853 5.0127,-9.30606 7.3081,-14.08496 3.0188,-6.17076 6.6925,-11.89915 10.375,-17.69141 2.1687,-3.41233 4.2815,-6.84993 6.375,-10.30859 11.5184,-18.74059 24.229,-36.57846 38.125,-53.625 l 2.5508,-3.14453 C 1402.135,175.99489 1407.7174,169.23705 1414,163 l 2.832,-2.86719 c 5.5549,-5.60587 11.1727,-10.99396 17.168,-16.13281 1.646,-1.54144 3.2919,-3.08313 4.9375,-4.625 15.494,-14.10105 33.1152,-25.66288 51.0625,-36.375 l 2.6057,-1.58887 c 7.268,-4.35781 14.6564,-7.984718 22.4568,-11.28613 l 3.6675,-1.555176 C 1547.2306,76.689968 1576.2661,68.990812 1607,66 l 4.0352,-0.398438 C 1624.6418,64.524672 1638.3612,64.910125 1652,65 c 0.099,6.675167 0.1713,13.349915 0.2197,20.025635 0.02,2.272861 0.047,4.545671 0.082,6.818359 0.048,3.259164 0.071,6.517645 0.089,9.777096 l 0.063,3.09972 c 9e-4,2.85121 9e-4,2.85121 -0.4532,7.27919 l -4,1 c -0.5475,3.86901 -0.5475,3.86901 -0.3483,8.68663 l 0.031,2.79493 c 0.039,3.11599 0.1056,6.2308 0.1714,9.34632 0.032,2.22345 0.062,4.44692 0.09,6.67043 0.062,4.80035 0.1332,9.60043 0.2099,14.40057 0.115,7.5826 0.1718,15.1649 0.2129,22.74823 l 0.022,3.87143 0.042,7.83888 c 0.092,17.6651 0.214,35.32652 0.543,52.98902 0.2213,11.90235 0.3341,23.80012 0.3187,35.70461 0,6.30923 0.049,12.60701 0.2337,18.91378 0.7251,25.84901 0.7251,25.84901 -1.7784,38.10275 L 1646,339 c -2.9922,2.23931 -2.9922,2.23931 -6.6664,3.43167 -6.9862,0.95469 -13.5078,0.18521 -20.4279,-0.95506 -5.8536,-0.71431 -11.2122,0.13636 -16.9682,1.21089 l -3.3517,0.56245 C 1558.6082,349.98283 1521.0028,363.5362 1486,384 c -22.369,13.65085 -43.5507,29.31665 -63.1797,46.67187 C 1420,433 1420,433 1416,435 l -1,3 c -3.4375,3.1875 -3.4375,3.1875 -7,6 h -2 l -1,3 h -2 l -1,3 h -2 v 2 h -2 v 2 c -1.65,1.35387 -3.3174,2.68678 -5,4 l -1,2 h -2 l -1,3 c -1.9375,2.1875 -1.9375,2.1875 -4,4 h -2 l -2,4 c -2.5,2.75 -2.5,2.75 -5,5 h -2 l -2,4 c -2.3999,2.67537 -4.822,5.28714 -7.3125,7.875 -3.6279,3.79326 -7.2265,7.55872 -10.543,11.63281 L 1352,502 h -2 l -2,4 c -1.6659,1.91276 -3.3806,3.78347 -5.125,5.625 -4.3602,4.66963 -8.4288,9.44407 -12.3164,14.51172 L 1329,528 l -2,1 -1,3 c -1.9375,2.1875 -1.9375,2.1875 -4,4 h -2 v 2 h -2 l -2,4 c -2.7205,3.65856 -5.7816,6.78158 -9,10 l -2.5,3 c -2.3755,2.85055 -4.7709,5.4864 -7.5,8 l -3,1 -2,4 -2,3 h -2 l -2,4 -3,1 -2,4 c -1.5223,1.70791 -3.1031,3.36446 -4.7187,4.98437 l -2.8243,2.83204 -2.957,2.93359 -2.957,2.98047 -2.8242,2.8164 -2.5958,2.58887 L 1260,601 h -2 v 2 h -2 v 2 h -2 v 2 l -2.6875,1.3125 c -3.6115,1.8398 -5.5185,3.7635 -8.3125,6.6875 -9.0493,8.47472 -18.9803,16.23909 -30,22 h -3 v 2 c -2.0787,1.18909 -4.2168,2.2748 -6.375,3.3125 l -3.8984,1.88672 L 1196,646 c -1.6677,0.87299 -3.3345,1.74771 -5,2.625 -13.7278,6.73147 -27.8995,9.63975 -43,11.375 -15.7643,1.3159 -32.29,-0.75921 -47.5269,-4.97607 C 1088.67,651.40613 1077.7136,647.14382 1067,641 c -1.748,-0.96618 -3.4967,-1.93104 -5.2461,-2.89453 -8.9654,-5.01657 -17.6022,-10.05368 -25.6719,-16.46094 -1.9789,-1.67777 -1.9789,-1.67777 -4.082,-2.64453 v -2 l -5,-2 -3,-2 v -2 l -4,-2 c -2.1087,-1.46409 -4.1903,-2.96768 -6.25,-4.5 l -3.2656,-2.40625 L 1008,600 v -2 l -5,-2 c -2.3021,-1.83222 -4.54731,-3.7369 -6.75,-5.6875 C 990.94745,585.68442 985.60041,581.25563 980,577 l -3.69531,-2.89063 C 957.1094,559.19149 936.91744,546.57129 915,536 l -4.4375,-2.1875 C 904.18167,531.27765 897.66106,529.63308 891,528 l -3.43359,-0.84766 C 884.38528,526.39239 881.19887,525.68113 878,525 l -2.73828,-0.59375 C 861.42184,521.74398 847.07867,521.1481 833.1875,523.55469 830,524 830,524 824.75,523.5625 L 821,524 c -0.77448,2.04376 -1.52114,4.10167 -2.1377,6.19849 -1.66862,5.42114 -3.9592,10.62078 -6.1123,15.86401 l -1.47876,3.61694 c -3.13819,7.64621 -6.35743,15.24958 -9.73608,22.79322 -1.16701,2.68145 -2.27197,5.39 -3.34766,8.10937 -2.5559,6.43432 -5.40433,12.73267 -8.25,19.04297 l -1.73169,3.84521 c -1.1712,2.59773 -2.34364,5.1949 -3.51733,7.79151 -1.54982,3.43128 -3.09226,6.86578 -4.63379,10.30078 C 774.46896,633.95106 768.54717,646.08414 762,658 l -1.50781,2.76172 c -6.52019,11.90015 -13.3661,23.42133 -21.03125,34.62109 -2.42214,3.45917 -2.42214,3.45917 -4.17188,6.60938 L 734,704 h -2 l -2,5 c -1.77156,2.25819 -3.61174,4.46344 -5.5,6.625 -3.9566,4.5301 -3.9566,4.5301 -7.5,9.375 h -2 l -2,4 -3,3 h -2 v 2 c -3.46819,3.2334 -7.26421,6.08346 -11,9 l -2.61719,2.08984 c -11.12147,8.53548 -23.48355,13.99811 -36.85937,18 -13.80627,3.56637 -29.32447,2.77508 -43.42578,1.44922 -14.23508,-2.41754 -27.31526,-8.16784 -39.92188,-15.05469 -10.13938,-6.03241 -19.21476,-13.20731 -27.80859,-21.26562 -2.02838,-1.90119 -4.12899,-3.72481 -6.24219,-5.53125 C 537.26641,720.22912 534.63226,717.69646 532,715 l -3.875,-3.8125 c -3.14095,-3.13514 -6.04552,-6.41006 -8.9375,-9.77734 C 514.02427,695.72138 508.45987,690.40178 503,685 l -5,-5 -3.375,-3.3125 C 491,673 491,673 487.875,669.3125 c -4.21075,-4.89978 -9.00796,-9.14795 -13.78906,-13.48047 -1.90373,-1.74709 -3.77135,-3.53573 -5.57422,-5.38672 -7.34783,-7.15356 -16.38957,-12.96367 -25.67969,-17.26172 -6.44028,-2.69159 -11.70962,-4.07523 -18.65234,-4.42968 -9.67002,-0.12106 -18.34249,0.19188 -27.54297,3.42968 l -2.94922,1.25391 -2.98828,1.24609 C 387.65141,636.06498 387.65141,636.06498 384,639 l -5,2 c -8.44078,5.38482 -16.03463,11.56664 -23.28125,18.45703 -1.87377,1.75262 -3.81482,3.43509 -5.80469,5.05469 -2.73978,2.33946 -4.84424,4.64479 -7.03906,7.48828 l -1.94531,2.5 c -1.36021,1.76221 -2.70806,3.53399 -4.04688,5.3125 L 335,682 h -2 l -2,4 -1,2 h -2 l -2,4 c -1.42497,1.9416 -2.88874,3.8549 -4.375,5.75 -3.879,4.98809 -7.71265,10.0044 -11.5,15.0625 l -3.05469,4.07812 c -2.02942,2.71623 -4.05552,5.43494 -6.07812,8.15625 -4.95008,6.64319 -9.9646,13.20274 -15.17969,19.64063 -4.50963,5.58419 -8.63771,11.31613 -12.66406,17.25391 -2.80008,3.98629 -5.8507,7.71648 -8.97266,11.45312 -2.05757,2.46392 -4.05994,4.96252 -6.05078,7.48047 -7.71209,9.64774 -15.75983,18.9423 -24.20313,27.95703 -2.09472,2.27115 -4.14322,4.58527 -6.16015,6.92578 -4.34492,4.98864 -9.01264,9.63921 -13.69922,14.30469 l -2.5918,2.60352 C 206.47193,837.65716 201.34944,842.38822 196,847 c -1.81713,1.7034 -3.62994,3.41144 -5.4375,5.125 C 180.17105,861.68671 168.67576,870.07716 157,878 l -2.95313,2.11328 c -8.42017,5.87298 -17.19878,10.83982 -26.23437,15.69922 l -3.56201,1.92187 C 116.97893,901.59404 109.63174,904.92549 102,908 c -2.126409,0.9552 -4.251676,1.91296 -6.375,2.875 C 78.002371,918.38344 59.822602,922.78638 41,926 l -3.385742,0.59863 C 4.5162258,932.32263 -28.640747,931.10124 -61.5625,924.8125 -81.447713,920.74632 -100.53706,914.39824 -119,906 l -4.27734,-1.89453 c -24.88434,-11.30269 -48.33264,-26.49178 -68.45313,-45.01953 -2.09392,-1.92453 -4.24213,-3.78955 -6.39453,-5.64844 C -204.93748,847.39417 -211.0911,840.92889 -217,834 l -2.53125,-2.90234 C -244.98726,801.60157 -264.02252,766.51951 -277.45312,730.05469 -285.18965,707.9445 -290.05357,685.20265 -293,662 l -0.68359,-4.96875 c -1.50526,-13.03865 -1.55305,-26.11092 -1.62891,-39.21875 l -0.0292,-2.83221 c -0.12564,-14.24749 0.0729,-28.8476 4.92443,-42.40241 1.65637,-3.95104 3.47667,-7.75872 5.41724,-11.57788 l 1.98828,-3.97656 C -279.17391,549.58629 -274.97031,542.73063 -270,536 l -4.38672,-1.25391 C -295.10908,528.50863 -314.55317,517.66302 -332,505 l -3,-1 -2,4 c -1.5542,2.24496 -3.11307,4.48679 -4.69141,6.71484 -2.88949,4.11179 -5.7249,8.25985 -8.55859,12.41016 -4.13271,6.05083 -8.27675,12.09339 -12.4375,18.125 -3.44977,5.00789 -6.84052,10.04793 -10.1875,15.125 -4.88077,7.36026 -10.03614,14.49725 -15.24219,21.62891 -1.777,2.46325 -3.50318,4.96528 -5.14062,7.52343 L -395,592 h -2 c -1.38974,-1.86142 -2.68021,-3.79667 -3.9375,-5.75 -5.08652,-7.78504 -10.2725,-15.49634 -15.5,-23.1875 l -2.52344,-3.71729 c -4.30497,-6.33778 -8.62504,-12.6643 -12.97656,-18.97021 -3.82705,-5.54714 -7.58201,-11.13783 -11.3125,-16.75 l -3.01562,-4.51172 c -1.65505,-2.48966 -3.29504,-4.98956 -4.90625,-7.50781 -1.9269,-3.03227 -1.9269,-3.03227 -4.82813,-6.60547 -4.96369,1.24092 -7.98041,3.57974 -12.1875,6.5 -19.94167,13.54183 -41.62145,23.62287 -65.06641,29.21875 -28.56381,6.49774 -56.63283,8.27139 -85.74609,4.28125 -3.12232,-0.62167 -6.14186,-1.3522 -9.19922,-2.23438 -3.16287,-0.8646 -6.31952,-1.39736 -9.55078,-1.95312 C -654.10226,537.59925 -670.22417,531.6433 -685,524 l -2.78906,-1.41797 C -707.81896,512.03532 -724.7468,498.65254 -741,483 l -3.15625,-2.96094 C -752.45697,472.06601 -759.19127,463.24811 -766,454 l -3,-4 v -2 h -2 c -2.125,-3.875 -2.125,-3.875 -4,-8 v -2 h -2 c -2.60658,-3.73987 -4.22426,-7.81997 -6,-12 l -1.39453,-3.14844 c -3.49717,-7.95774 -6.5012,-16.0084 -9.30859,-24.23437 C -794.96514,394.8712 -794.96514,394.8712 -797,391 c -0.68308,-3.33001 -1.34899,-6.66357 -2,-10 l -0.96094,-2.70313 C -806.55361,357.37878 -804.99643,332.58098 -804,311 c 0.6664,-8.17159 2.11109,-16.02915 4,-24 l 0.66553,-2.81396 C -794.74786,265.2131 -788.16082,247.2617 -779,230 l 1.45313,-2.875 c 11.15203,-21.53497 27.79543,-40.52018 45.63671,-56.76953 C -715.97685,156.68243 -698.32173,145.28074 -679,137 c -3.6999,-1.84995 -6.75988,-2.77388 -10.75,-3.75 -20.72672,-5.43652 -39.18223,-14.7504 -56.71094,-26.96484 -13.13899,-9.887878 -25.32904,-22.510428 -34.21484,-36.308598 C -789.61687,54.679036 -795.34052,38.448254 -798.375,21 c -0.24555,-1.995772 -0.45372,-3.996487 -0.625,-6 l -0.32031,-3.640625 C -799.66157,4.5045206 -799.66157,4.5045206 -799,2 L -796.41016,0.79296875 -793,1 c 3.47266,2.3164063 3.47266,2.3164063 7.0625,5.5625 l 3.59766,3.1914063 C -779.31216,12.696598 -776.66699,15.734766 -774,19 c 1.82442,1.658565 3.65643,3.310157 5.53906,4.902344 1.83515,1.564247 3.63751,3.167124 5.42188,4.789062 14.63213,13.080237 31.41754,23.235289 49.54687,30.765625 23.03137,8.68267 46.8525,11.088824 71.24707,11.043946 3.76736,-9.83e-4 7.53274,0.04101 11.29981,0.08496 2.42968,0.0052 4.85937,0.0079 7.28906,0.0078 l 3.35925,0.04968 c 4.38192,-0.0385 8.16255,-0.249674 12.32434,-1.694199 C -605.25319,67.726145 -602.62514,66.412756 -600,65 l 3.20703,-1.570557 2.60547,-1.339599 C -571.99618,50.780272 -549.82117,40.384973 -526,33 c 4.20567,-1.392442 8.40583,-2.800442 12.60547,-4.210938 9.68001,-3.145739 19.43092,-5.504744 29.36328,-7.675781 3.07682,-0.680818 6.14535,-1.402781 9.19531,-2.195312 3.91138,-0.936022 7.7155,-1.47491 11.71094,-1.917969 6.12356,-0.720085 12.08067,-1.774798 18.125,-3 45.44487,-5.0789092 92.53396,-3.574415 137.15771,6.37207 2.80312,0.619276 5.61184,1.201302 8.42432,1.776367 12.8857,2.697859 25.19906,6.555723 37.62158,10.889161 5.44665,1.874513 10.94476,3.597196 16.43311,5.345214 4.73401,1.754592 9.24208,3.813534 13.80981,5.958008 3.65155,1.704977 7.32414,3.35414 11.0066,4.991211 12.72163,5.673499 25.3509,11.309554 37.52734,18.09375 3.07828,1.754249 3.07828,1.754249 7.01953,2.574219 7.41227,0.272207 14.83309,0.245868 22.25,0.25 l 3.2468,0.002 C -135.12005,70.236584 -120.16018,69.911404 -105,67 l 2.896,-0.552246 C -91.306724,64.337657 -80.926279,61.862399 -71,57 l 3.605469,-1.601563 C -47.433598,46.137195 -29.762425,31.188713 -14.4375,15.574219 -10.280353,11.183898 -6.3640392,6.5969239 -2.4375,2 Z"
     transform="translate(863,47)"
     style="fill:#ffffff;fill-opacity:1"
     id="path3"
     sodipodi:nodetypes="ccccccccccccccccccccccccccscsscccccccccccccccscccccccccccccccccccccccccccccccccccccccccccccccccccsccccccccccccccccccccccccccccccccccccccccccsssscccccccccccccccccccccccccccccccccccccccccccccccsccccccccsccccccccccccccccccccccccccccccccccccccccccccccccccccccccccccccccccccccccccccccccccccccccccccccccccccccccccccccccccccccccccccccccccccccccccccccccccccccccccccccccccccccccccccccccccccccccccccccccccccccccccccccccccccccccccccccccccccccccccccccc" />
  <path
     d="m 0,0 c 0.09857122,6.6751672 0.17132723,13.349915 0.21972656,20.025635 0.0201671,2.272861 0.0475003,4.545671 0.0820313,6.818359 0.0482944,3.259164 0.0711595,6.517645 0.0888672,9.7771 l 0.062561,3.099716 C 0.45410156,42.572021 0.45410156,42.572021 0,47 l -4,1 c -0.5474897,3.869013 -0.5474897,3.869013 -0.3483429,8.68663 l 0.031175,2.794928 c 0.038833,3.115987 0.1056147,6.230797 0.171416,9.346323 0.032125,2.223445 0.062079,4.446923 0.090011,6.670425 0.06189,4.800349 0.1332421,9.600438 0.2099514,14.400572 0.1150338,7.582605 0.1718156,15.164902 0.2129307,22.748232 l 0.021477,3.87143 c 0.014161,2.61296 0.028079,5.22592 0.041761,7.83888 0.092548,17.6651 0.2139718,35.32652 0.5430092,52.98902 0.2213175,11.90235 0.3340953,23.80012 0.3187392,35.70461 -0.00385,6.30923 0.04895,12.60701 0.2336347,18.91378 0.7251618,25.84901 0.7251618,25.84901 -1.7783909,38.10275 L -6,274 c -2.9922447,2.23931 -2.9922447,2.23931 -6.666351,3.43167 -6.986297,0.95469 -13.507895,0.18521 -20.427924,-0.95506 -5.853612,-0.71431 -11.212216,0.13636 -16.968225,1.21089 l -3.351657,0.56245 C -93.39176,284.98283 -130.99719,298.5362 -166,319 c -22.36905,13.65085 -43.55065,29.31665 -63.17969,46.67187 C -232,368 -232,368 -236,370 l -1,3 c -3.4375,3.1875 -3.4375,3.1875 -7,6 h -2 l -1,3 h -2 l -1,3 h -2 v 2 h -2 v 2 c -1.65003,1.35387 -3.31744,2.68678 -5,4 l -1,2 h -2 l -1,3 c -1.9375,2.1875 -1.9375,2.1875 -4,4 h -2 l -2,4 c -2.5,2.75 -2.5,2.75 -5,5 h -2 l -2,4 c -2.39988,2.67537 -4.82198,5.28714 -7.3125,7.875 -3.62788,3.79326 -7.22653,7.55872 -10.54297,11.63281 L -300,437 h -2 l -2,4 c -1.66595,1.91276 -3.38064,3.78347 -5.125,5.625 -4.36023,4.66963 -8.42878,9.44407 -12.31641,14.51172 L -323,463 l -2,1 -1,3 c -1.9375,2.1875 -1.9375,2.1875 -4,4 h -2 v 2 h -2 l -2,4 c -2.72047,3.65856 -5.78158,6.78158 -9,10 l -2.5,3 c -2.37546,2.85055 -4.77095,5.4864 -7.5,8 l -3,1 -2,4 -2,3 h -2 l -2,4 -3,1 -2,4 c -1.52235,1.70791 -3.10309,3.36446 -4.71875,4.98437 l -2.82422,2.83204 -2.95703,2.93359 -2.95703,2.98047 -2.82422,2.8164 -2.5957,2.58887 L -392,536 h -2 v 2 h -2 v 2 h -2 v 2 l -2.6875,1.3125 c -3.61145,1.8398 -5.51845,3.7635 -8.3125,6.6875 -9.04928,8.47472 -18.98027,16.23909 -30,22 h -3 v 2 c -2.07867,1.18909 -4.21676,2.2748 -6.375,3.3125 l -3.89844,1.88672 L -456,581 c -1.66772,0.87299 -3.33454,1.74771 -5,2.625 -13.72779,6.73147 -27.89949,9.63975 -43,11.375 -15.76426,1.3159 -32.29003,-0.75921 -47.52686,-4.97607 C -563.32998,586.40613 -574.28643,582.14382 -585,576 c -1.74796,-0.96618 -3.49665,-1.93104 -5.24609,-2.89453 -8.96537,-5.01657 -17.60219,-10.05368 -25.67188,-16.46094 C -617.89694,554.96676 -617.89694,554.96676 -620,554 v -2 l -5,-2 -3,-2 v -2 l -4,-2 c -2.10873,-1.46409 -4.19032,-2.96768 -6.25,-4.5 l -3.26562,-2.40625 L -644,535 v -2 l -5,-2 c -2.3021,-1.83222 -4.54731,-3.7369 -6.75,-5.6875 -5.30255,-4.62808 -10.64959,-9.05687 -16.25,-13.3125 l -3.69531,-2.89063 C -694.8906,494.19149 -715.08256,481.57129 -737,471 l -4.4375,-2.1875 C -747.81833,466.27765 -754.33894,464.63308 -761,463 l -3.43359,-0.84766 C -767.61472,461.39239 -770.80113,460.68113 -774,460 l -2.73828,-0.59375 c -13.83988,-2.66227 -28.18305,-3.25815 -42.07422,-0.85156 C -822,459 -822,459 -827.25,458.5625 L -831,459 c -0.77448,2.04376 -1.52114,4.10167 -2.1377,6.19849 -1.66862,5.42114 -3.9592,10.62078 -6.1123,15.86401 l -1.47876,3.61694 c -3.13819,7.64621 -6.35743,15.24958 -9.73608,22.79322 -1.16701,2.68145 -2.27197,5.39 -3.34766,8.10937 -2.5559,6.43432 -5.40433,12.73267 -8.25,19.04297 l -1.73169,3.84521 c -1.1712,2.59773 -2.34364,5.1949 -3.51733,7.79151 -1.54982,3.43128 -3.09226,6.86578 -4.63379,10.30078 C -877.53104,568.95106 -883.45283,581.08414 -890,593 l -1.50781,2.76172 c -6.52019,11.90015 -13.3661,23.42133 -21.03125,34.62109 -2.42214,3.45917 -2.42214,3.45917 -4.17188,6.60938 L -918,639 h -2 l -2,5 c -1.77156,2.25819 -3.61174,4.46344 -5.5,6.625 -3.9566,4.5301 -3.9566,4.5301 -7.5,9.375 h -2 l -2,4 -3,3 h -2 v 2 c -3.46819,3.2334 -7.26421,6.08346 -11,9 l -2.61719,2.08984 c -11.12147,8.53548 -23.48355,13.99811 -36.85937,18 -13.80624,3.56637 -29.32444,2.77508 -43.42574,1.44922 -14.2351,-2.41754 -27.3153,-8.16784 -39.9219,-15.05469 -10.1394,-6.03241 -19.2148,-13.20731 -27.8086,-21.26562 -2.0284,-1.90119 -4.129,-3.72481 -6.2422,-5.53125 -2.8586,-2.45838 -5.4927,-4.99104 -8.125,-7.6875 l -3.875,-3.8125 c -3.141,-3.13514 -6.0455,-6.41006 -8.9375,-9.77734 C -1137.9757,630.72138 -1143.5401,625.40178 -1149,620 l -5,-5 -3.375,-3.3125 C -1161,608 -1161,608 -1164.125,604.3125 c -4.2107,-4.89978 -9.008,-9.14795 -13.7891,-13.48047 -1.9037,-1.74709 -3.7713,-3.53573 -5.5742,-5.38672 -7.3478,-7.15356 -16.3896,-12.96367 -25.6797,-17.26172 -6.4403,-2.69159 -11.7096,-4.07523 -18.6523,-4.42968 -9.67,-0.12106 -18.3425,0.19188 -27.543,3.42968 l -2.9492,1.25391 -2.9883,1.24609 c -3.0478,1.38139 -3.0478,1.38139 -6.6992,4.31641 l -5,2 c -8.4408,5.38482 -16.0346,11.56664 -23.2813,18.45703 -1.8737,1.75262 -3.8148,3.43509 -5.8046,5.05469 -2.7398,2.33946 -4.8443,4.64479 -7.0391,7.48828 l -1.9453,2.5 c -1.3602,1.76221 -2.7081,3.53399 -4.0469,5.3125 L -1317,617 h -2 l -2,4 -1,2 h -2 l -2,4 c -1.425,1.9416 -2.8887,3.8549 -4.375,5.75 -3.879,4.98809 -7.7127,10.0044 -11.5,15.0625 l -3.0547,4.07812 c -2.0294,2.71623 -4.0555,5.43494 -6.0781,8.15625 -4.9501,6.64319 -9.9646,13.20274 -15.1797,19.64063 -4.5096,5.58419 -8.6377,11.31613 -12.6641,17.25391 -2.8,3.98629 -5.8507,7.71648 -8.9726,11.45312 -2.0576,2.46392 -4.06,4.96252 -6.0508,7.48047 -7.7121,9.64774 -15.7598,18.9423 -24.2031,27.95703 -2.0947,2.27115 -4.1433,4.58527 -6.1602,6.92578 -4.3449,4.98864 -9.0126,9.63921 -13.6992,14.30469 l -2.5918,2.60352 c -4.9988,4.99114 -10.1213,9.7222 -15.4707,14.33398 -1.8171,1.7034 -3.6299,3.41144 -5.4375,5.125 -10.3914,9.56171 -21.8867,17.95216 -33.5625,25.875 l -2.9531,2.11328 c -8.4202,5.87298 -17.1988,10.83982 -26.2344,15.69922 l -3.562,1.92187 c -7.2716,3.85967 -14.6188,7.19112 -22.2505,10.26563 -2.1264,0.9552 -4.2517,1.91296 -6.375,2.875 -17.6226,7.50844 -35.8024,11.91138 -54.625,15.125 l -3.3857,0.59863 c -33.0981,5.724 -66.255,4.50261 -99.1768,-1.78613 C -1733.4477,855.74632 -1752.5371,849.39824 -1771,841 l -4.2773,-1.89453 c -24.8844,-11.30269 -48.3327,-26.49178 -68.4532,-45.01953 -2.0939,-1.92453 -4.2421,-3.78955 -6.3945,-5.64844 -6.8125,-6.04333 -12.9661,-12.50861 -18.875,-19.4375 l -2.5313,-2.90234 c -25.456,-29.49609 -44.4912,-64.57815 -57.9218,-101.04297 C -1937.1897,642.9445 -1942.0536,620.20265 -1945,597 l -0.6836,-4.96875 c -1.5053,-13.03865 -1.553,-26.11092 -1.6289,-39.21875 l -0.029,-2.83221 c -0.1256,-14.24749 0.073,-28.8476 4.9245,-42.40241 1.6563,-3.95104 3.4766,-7.75872 5.4172,-11.57788 l 1.9883,-3.97656 c 1.9281,-3.73638 3.8697,-7.40496 6.0117,-11.02344 l 1.4307,-2.74365 c 1.6553,-2.84794 3.1051,-5.06463 5.5693,-7.25635 4.3752,0.17144 6.7576,0.6866 10.75,2.125 2.1636,0.65105 4.3304,1.29133 6.5,1.92187 l 3.3867,1.01368 c 23.1773,6.47402 48.3114,6.28836 72.1289,4.58398 4.1159,-0.41371 8.1569,-0.95336 12.2344,-1.64453 l 3.7266,-0.58984 c 15.6831,-2.78995 30.6211,-8.28352 45.2734,-14.41016 l 5,-2 c 13.7788,-6.83777 13.7788,-6.83777 26.6289,-15.23828 2.8311,-2.10352 5.756,-4.04489 8.6836,-6.01172 6.9584,-4.8085 13.3203,-10.19352 19.6875,-15.75 l 2.3828,-2.00781 c 3.3055,-2.80272 6.1657,-5.6321 8.9922,-8.92969 L -1694,411 h 2 l 2,-4 h 2 l 2,-5 2,-3 h 2 l 2,-5 c 1.8439,-3.15164 3.8667,-6.02234 6,-9 h 2 l 1,-4 c 1.1425,-2.10835 2.3376,-4.18846 3.5625,-6.25 6.2937,-10.8473 12.1229,-21.95683 16.4375,-33.75 l 1.3945,-3.76563 c 3.5672,-10.07831 6.0271,-20.13692 8.0447,-30.61376 0.4919,-2.54585 1.0222,-5.08423 1.5608,-7.62061 h 1 c 0.033,27.08333 0.052,54.16666 0.062,81.25 v 3.22535 c 0.038,96.0505 -0.245,192.09976 -0.5638,288.14965 l -0.018,5.4606 c -0.1547,46.63816 -0.3153,93.27629 -0.4819,139.9144 4.5751,-0.77097 9.149,-1.54897 13.7227,-2.32813 l 3.8756,-0.65283 c 20.1892,-3.44983 38.7066,-8.64446 57.4017,-17.01904 l 4.8594,-2.12109 c 25.7508,-11.65633 49.929,-28.4617 70.664,-47.61329 2.0046,-1.83383 4.0527,-3.61997 6.1133,-5.39062 5.1466,-4.49336 9.9697,-9.29735 14.8008,-14.125 l 2.6973,-2.66016 c 5.3213,-5.30965 10.2137,-10.79822 14.9113,-16.66601 2.2504,-2.7916 4.6283,-5.43209 7.0789,-8.04883 3.4924,-3.80302 6.7739,-7.68024 9.8984,-11.79688 2.6076,-3.40113 5.2937,-6.73615 7.9766,-10.07812 2.0003,-2.49976 4.0003,-4.99973 6,-7.5 l 1.8711,-2.33203 c 3.3414,-4.22465 6.4999,-8.56469 9.6352,-12.94458 5.6262,-7.85915 11.4308,-15.49415 17.521,-23.00464 5.1548,-6.44855 10.0371,-13.10206 14.9727,-19.71875 6.0505,-8.06729 12.329,-15.85393 18.9414,-23.46875 2.0065,-2.31657 3.9943,-4.64952 5.9609,-7 10.6231,-12.66211 22.0153,-24.40418 35.0977,-34.53125 l 2.9336,-2.41406 c 8.7437,-7.05177 18.1105,-12.42073 28.0664,-17.58594 l 3.7461,-1.97266 c 10.2118,-5.08914 20.9443,-9.26609 32.2539,-11.02734 12.8293,-1.12803 26.2793,-1.30365 38.875,1.625 2.3897,0.74599 4.766,1.53683 7.125,2.375 l 3.8398,1.17969 c 15.524,5.15938 28.8812,14.66785 41.5938,24.76172 10.5348,9.03482 20.3932,18.72649 30.1863,28.54809 2.203,2.20845 4.4114,4.41145 6.6203,6.61402 1.4268,1.42741 2.8532,2.85513 4.2793,4.2832 l 3.847,3.85034 c 3.6882,3.81957 7.1554,7.7528 10.6335,11.76294 2.9091,2.93486 5.8684,5.80821 8.8398,8.67969 L -1091,611 v 2 l 3,1 3,3 4,-1 c 2.1772,-1.66543 2.1772,-1.66543 4.375,-3.8125 4.1292,-3.83081 8.3347,-7.53746 12.625,-11.1875 4.9959,-4.26441 9.9219,-8.58966 14.7891,-13 6.7194,-6.07839 13.6271,-11.94249 20.5117,-17.83203 2.376,-2.03482 4.7487,-4.07355 7.1172,-6.11719 C -1005.1235,549.86496 -988.27625,536.17745 -971,523 l 3.64844,-2.8125 C -945.42643,503.4657 -921.96538,487.78663 -897,476 l 4,-2 h 3 l 2,-5 c 1.76567,-4.35627 3.53962,-8.70916 5.3125,-13.0625 l 1.43555,-3.5293 c 1.41352,-3.47096 2.83176,-6.93996 4.25195,-10.4082 l 1.21094,-2.9707 C -857.55062,394.69724 -836.72726,346.75665 -804,311 l 2.73047,-3.125 c 10.78058,-12.16427 23.14566,-21.5153 37.51953,-29.125 11.17742,-4.118 21.49679,-7.07654 33.5,-7.25 11.28341,0.31412 20.98341,2.01858 31.4375,6.25 10.85378,4.93023 19.73758,11.60275 28.8125,19.25 l 2.61719,2.04687 c 3.56933,2.92568 6.43028,6.42799 9.38281,9.95313 l 2.02734,2.40234 c 16.322,19.62772 30.12055,40.81869 43.09375,62.76172 2.87235,4.85446 5.83088,9.65418 8.79322,14.4541 2.03595,3.3012 4.06221,6.60814 6.08569,9.917 l 2,3.26367 c 1.33507,2.17862 2.6684,4.35831 4,6.53906 10.49136,17.09969 22.02202,33.34618 35,48.66211 l 2.0625,2.50781 c 6.94925,8.15005 15.09092,15.09224 24.36328,20.48438 4.19802,2.14258 7.99177,3.8622 12.57422,5.00781 7.28725,0.41389 14.78363,0.81785 21.98047,-0.57813 8.85891,-3.26458 17.25606,-9.27922 24.45312,-15.28906 9.80076,-8.88879 18.50227,-18.39831 26.3086,-29.07422 2.2268,-3.01658 4.54732,-5.93824 6.88281,-8.87109 C -422.9991,411.22749 -410.32062,388.92777 -398,367 l 2.21875,-3.91016 c 6.42469,-11.4205 12.46006,-23.02464 18.46094,-34.67187 2.62092,-5.08276 5.29797,-10.13194 8.00781,-15.16797 3.79144,-7.13151 7.27687,-14.38237 10.73291,-21.67969 12.03969,-25.34323 24.88962,-50.27104 38.39648,-74.86035 2.54587,-4.64853 5.01268,-9.30606 7.30811,-14.08496 3.01879,-6.17076 6.6925,-11.89915 10.375,-17.69141 2.16871,-3.41233 4.28148,-6.84993 6.375,-10.30859 11.51838,-18.74059 24.22898,-36.57846 38.125,-53.625 l 2.55078,-3.14453 C -249.86503,110.99489 -244.28264,104.23705 -238,98 l 2.83203,-2.867188 C -229.61306,89.526937 -223.99533,84.138852 -218,79 c 1.64604,-1.541444 3.29185,-3.083133 4.9375,-4.625 C -197.56849,60.273952 -179.94733,48.712121 -162,38 l 2.60571,-1.588867 c 7.268,-4.357813 14.65638,-7.984721 22.45679,-11.286133 l 3.66748,-1.555176 C -104.76945,11.689968 -75.733936,3.9908115 -45,1 l 4.035156,-0.3984375 C -27.358192,-0.47532759 -13.638839,-0.08987475 0,0 Z"
     transform="translate(2515,112)"
     style="fill:#ffffff;fill-opacity:1"
     id="path4"
     sodipodi:nodetypes="ccccccccccccsssscccccccccccccccccccccccccccccccccccccccccccccccsccccccccsccccccccccccccccccccccccccccccccccccccccccccccccccccccccccccccccccccccccccccccccccccccccccccccccccccccccccccccccccccccccccccccccccccccccccccccccccccccccccccccscccccccccccccccccsssscccccccccccccccscccccccccccccccccccccccccccccccccccccccccccccccccccsccccccccccccccccccccccccccccccc" />
  <path
     d="M 0,0 C 4.9818896,2.4909448 8.2404676,6.1147153 12.0625,10.0625 18.404617,16.498376 24.777317,22.547383 32,28 l 3.335937,2.59375 C 49.833898,41.598599 65.177605,50.099905 82,57 l 2.921875,1.324219 C 98.793698,64.535191 114.10616,68.200406 129,71 l 2.99219,0.585937 c 22.12928,4.050187 46.33835,4.25335 68.45508,0.184327 C 203.30471,71.207673 206.15264,70.611458 209,70 l 2.79639,-0.583496 C 236.0551,64.283452 259.00729,55.312453 280,42 c 3.72285,-2.679239 7.40491,-5.393022 11.03906,-8.191406 L 294,32 l 4,1 c 2.41783,3.080457 4.6329,6.133242 6.8125,9.375 l 1.89868,2.769043 c 3.66335,5.366934 7.24239,10.781113 10.66675,16.304199 1.53366,2.412674 3.13436,4.750047 4.78613,7.083008 4.15457,5.905145 8.21722,11.870777 12.27344,17.84375 l 2.1582,3.171875 c 4.25811,6.265334 8.47969,12.553175 12.66236,18.869145 1.53078,2.27075 3.13121,4.49422 4.74194,6.70898 l 2,2.875 v 2 c 3.30071,-3.08464 5.77934,-6.3905 8.3125,-10.125 l 2.39844,-3.51562 L 369,103 c 1.14293,-1.62705 2.2885,-3.252239 3.4375,-4.875 2.73337,-3.895047 5.37467,-7.84388 8,-11.8125 7.61197,-11.464661 15.52014,-22.731775 23.44312,-33.983154 2.60081,-3.696702 5.16346,-7.397006 7.6311,-11.184815 L 413.6875,37.8125 415.88672,34.394531 418,32 c 4.52758,1.131894 7.33091,2.970544 11.25,5.5 14.13257,8.92985 28.2112,16.292886 43.75,22.5 l 3.42578,1.386719 C 478.61295,62.268393 480.80555,63.136609 483,64 c -1.84379,3.687581 -3.88562,7.064909 -6.0625,10.5625 -7.03807,11.673173 -13.95669,24.173357 -16.55933,37.65967 -1.56182,10.96348 -1.73289,21.84382 -1.69067,32.90283 l 0.005,2.9249 C 458.73755,164.50945 459.61104,180.70305 462,197 l 0.43799,3.05078 c 2.91323,19.69251 6.7442,41.00159 14.74951,59.32422 2.29047,5.3308 4.40075,10.71605 6.5,16.125 14.29892,36.13815 36.38908,67.58167 62.375,96.25 22.60846,24.25699 50.73509,43.37155 80.37061,58.01562 C 650.93912,441.55014 677.07944,450.06853 704,454 l 2.64648,0.41455 C 729.65161,457.92548 752.79988,457.29832 776,457 l -1,4 c -2.44141,2.07812 -2.44141,2.07812 -5.5625,4.25 -5.31947,3.85897 -10.13378,7.77176 -14.4375,12.75 l -1.3474,2.5432 c -1.5202,2.63777 -1.5202,2.63777 -3.664,5.29509 L 747,488 c -7.26154,1.51637 -14.49129,1.28499 -21.86841,1.16699 -2.25291,4.6e-4 -4.50583,0.005 -6.75873,0.0142 -6.11553,0.0114 -12.22916,-0.0392 -18.34434,-0.10135 -6.42416,-0.0552 -12.84834,-0.0551 -19.27271,-0.0614 -10.8085,-0.0184 -21.6163,-0.0734 -32.42451,-0.15411 -15.15577,-0.11302 -30.31118,-0.15825 -45.46731,-0.19057 -10.57112,-0.0251 -21.1422,-0.0663 -31.71326,-0.11076 -2.54235,-0.0107 -5.08471,-0.0209 -7.62707,-0.0308 C 509.25706,488.31591 509.25706,488.31591 487,486 l -5.00105,-0.51649 c -3.98555,-0.43045 -7.96019,-0.91239 -11.93645,-1.42101 l -4.1936,-0.52295 C 444.99232,480.90423 424.60412,477.23727 404.125,472.375 l -2.81204,-0.6673 c -11.81055,-2.81229 -23.57657,-5.74061 -35.25046,-9.0827 l -3.271,-0.93604 C 356.08781,459.72319 349.54195,457.44598 343,455 l -4.80859,-1.74609 c -7.88418,-2.88089 -15.73354,-5.7867 -23.45313,-9.08594 -1.84831,-0.78837 -3.7055,-1.55619 -5.57031,-2.30469 C 293.92098,435.71958 279.49837,427.70799 265,420 l -2.94531,-1.54688 c -32.76551,-17.46124 -63.98662,-39.70905 -91.25391,-64.89843 -2.10345,-1.91863 -4.24736,-3.79305 -6.41016,-5.64453 -5.56838,-4.85816 -10.7402,-10.11455 -15.95312,-15.34766 l -3.03711,-3.02539 C 140.05248,324.18216 134.90491,318.76297 130,313 l -2.95703,-3.42188 C 124.02231,306.05746 121.01067,302.52921 118,299 l -2.53906,-2.9375 c -6.73537,-7.89816 -12.81978,-16.22678 -18.796389,-24.70361 -1.60959,-2.281 -3.232548,-4.55255 -4.855957,-6.82373 C 83.253341,252.42222 75.872371,239.71849 68.593262,226.80762 66.688091,223.45036 64.716443,220.13414 62.75,216.8125 57.736654,208.03095 53.541069,198.82355 49.255859,189.67187 48.168376,187.35822 47.062421,185.05327 45.953125,182.75 42.383554,175.29497 39.284491,167.76851 36.460937,160 35.520467,157.42502 34.54879,154.86112 33.539062,152.3125 29.472423,141.98453 26.50192,131.46106 23.589844,120.76563 22.470797,116.66049 21.268365,112.60479 19.9375,108.5625 13.618026,88.276518 10.256654,67.096596 6.75,46.1875 6.3131732,43.62163 5.8756753,41.055874 5.4375,38.490234 4.2756931,31.662735 3.1175802,24.834897 2,18 L 1.4205322,14.474274 0.86425781,10.997314 0.36114502,7.8734894 C 0,5 0,5 0,0 Z"
     transform="translate(110,519)"
     style="fill:none"
     id="path5"
     sodipodi:nodetypes="ccccccccccccccccccccccccccccccccccccccccccccccccccccccccccccccscscccccccccccccccccccccccccccccccccccccccc" />
  <path
     d="M 0,0 H 1 C 1.3594212,1.8665738 1.6606724,3.7444023 1.9375,5.625 2.6211515,9.9547928 3.5299775,13.865562 5,18 l 0.75,3.9375 c 1.3831816,5.601886 3.4000029,10.671217 5.597656,15.996094 2.228336,5.483917 4.241791,11.040583 6.257813,16.605468 C 18.843362,57.611258 20.287879,60.182526 22,63 L 23.5625,67.8125 25,72 h 2 c 2.125,3.3125 2.125,3.3125 4,7 v 3 h 2 c 1.628906,1.984375 1.628906,1.984375 3.5625,4.75 2.226821,3.181173 4.455124,6.271326 6.929687,9.265625 L 45.9375,99 48.214844,101.6875 50,105 c 0.26984,2.66101 0.532618,5.32318 0.739426,7.98984 0.405878,4.68871 1.15369,9.32278 1.897293,13.96719 l 0.484497,3.07143 c 0.517012,3.26218 1.040746,6.52322 1.566284,9.78404 l 0.542145,3.37775 c 4.584819,28.48405 9.505613,56.95827 18.387542,84.46991 1.062162,3.3335 2.084322,6.66948 3.078125,10.02343 3.906625,13.3654 3.906625,13.3654 8.990479,26.31348 1.437065,3.28365 2.748397,6.6033 4.056396,9.94043 8.090049,20.28373 17.767913,39.75433 28.812013,58.5791 2.16212,3.7138 4.23719,7.47514 6.3208,11.2334 12.20999,21.68938 26.99238,42.43211 43.41016,61.13672 2.40266,2.75528 4.69379,5.56228 6.96484,8.42578 9.45991,11.61297 20.19014,22.20915 30.75,32.8125 l 2.35303,2.36719 C 213.07746,453.20342 217.9348,457.65691 223,462 l 3.02734,2.63281 C 239.11679,475.8423 252.91133,486.08838 267,496 l 2.42187,1.75 C 278.00832,503.90855 287.02831,509.42634 296,515 l 4,2.49219 c 8.76328,5.36565 17.76778,10.00777 27,14.50781 2.68855,1.35208 5.37606,2.70624 8.0625,4.0625 11.13831,5.55282 22.15273,10.83643 33.93359,14.89062 3.41331,1.18956 6.69152,2.60147 10.00391,4.04688 53.10148,21.66088 111.13108,32.28508 168.05615,36.69043 2.9238,0.2295 5.84357,0.51163 8.75991,0.82182 9.99932,0.82661 20.04529,0.61846 30.0709,0.60128 2.31215,-2.9e-4 4.62429,-1.3e-4 6.93643,4.4e-4 6.2493,2.8e-4 12.49858,-0.006 18.74788,-0.0126 6.54488,-0.006 13.08976,-0.007 19.63465,-0.008 12.38453,-0.003 24.76906,-0.0113 37.15359,-0.0214 14.09225,-0.0112 28.18449,-0.0167 42.27674,-0.0217 27.78602,-0.01 55.57203,-0.0265 83.35804,-0.0475 5.97965,-0.004 11.95928,-3e-5 17.93892,0.004 l 3.47744,0.002 c 3.89343,0.002 7.78687,0.005 11.6803,0.007 l 8.43701,0.005 c 7.79457,0.005 15.58914,0.009 23.38371,0.0142 8.45466,0.005 16.90933,0.0103 25.36399,0.0154 l 44.51926,0.027 c 15.92919,0.01 31.85839,0.0194 47.78758,0.029 l 3.04442,0.002 15.36723,0.009 c 37.11355,0.0225 74.22715,0.0451 111.34075,0.0676 36.7645,0.0223 73.529,0.0447 110.2935,0.067 l 3.4574,0.002 31.2616,0.019 77.7195,0.0472 3.5752,0.002 c 57.4195,0.0349 114.839,0.0697 172.2585,0.10462 l 59.792,0.0363 3.7457,0.002 c 57.441,0.0349 114.882,0.0698 172.323,0.10465 l 11.1847,0.007 74.1203,0.045 147.4862,0.0896 7.024,0.004 c 105.4272,0.064 210.8544,0.12805 316.2817,0.19208 l 2.992,0.002 L 2448,594 v 47 c -57.4263,0.0165 -114.8525,0.0323 -172.2788,0.0476 l -3.4055,9e-4 c -120.4605,0.0321 -240.921,0.0597 -361.3815,0.0785 l -8.0308,0.001 c -56.1939,0.009 -112.3878,0.0169 -168.5817,0.0244 -28.2297,0.004 -56.4594,0.008 -84.689,0.0116 -4.2583,6e-4 -8.5165,10e-4 -12.7748,0.002 -65.541,0.009 -131.0821,0.0209 -196.6232,0.04 l -4.2676,10e-4 c -22.7048,0.007 -45.4097,0.0135 -68.1145,0.0204 -65.4276,0.0198 -130.8553,0.038 -196.2829,0.0458 l -4.0805,4.9e-4 c -29.5664,0.003 -59.1329,0.006 -88.6993,0.008 -11.8981,7.9e-4 -23.7961,0.002 -35.6942,0.003 l -3.9459,3.1e-4 c -41.89757,0.003 -83.79514,0.0161 -125.69272,0.0339 -42.23429,0.0179 -84.46857,0.0264 -126.70287,0.022 -5.84779,-6.1e-4 -11.69558,-0.001 -17.54337,-0.002 l -3.47347,-2.7e-4 c -18.08735,-10e-4 -36.17468,0.008 -54.26202,0.021 -17.82349,0.0128 -35.64696,0.0147 -53.47045,0.005 -9.51899,-0.005 -19.03793,-0.005 -28.55692,0.009 -105.52922,0.14141 -105.52922,0.14141 -156.84251,-10.44496 -3.37153,-0.6806 -6.69872,-1.26019 -10.09375,-1.78125 -8.07473,-1.32415 -15.96163,-3.38326 -23.88672,-5.39844 l -4.82983,-1.21997 C 415.36144,617.8536 397.0827,612.91707 379,607 l -4.16406,-1.33594 c -6.37074,-2.19219 -12.62948,-4.63557 -18.89844,-7.10156 l -3.7207,-1.44727 C 345.97722,594.66577 339.98272,592.03182 334,589 c -2.44861,-0.98104 -4.89756,-1.96133 -7.35352,-2.92383 -4.72024,-1.91945 -9.30373,-4.12232 -13.89648,-6.32617 l -3.04517,-1.45728 c -6.80642,-3.29131 -13.41116,-6.82229 -19.92358,-10.66772 -2.18873,-1.27881 -4.44426,-2.44331 -6.71875,-3.5625 -35.48307,-18.01448 -68.32394,-44.16946 -97.65234,-70.875 -1.66755,-1.51349 -3.34819,-3.01263 -5.03907,-4.5 C 175.4908,484.38179 171.22688,479.96199 167,475 c -1.89176,-1.63083 -3.78417,-3.26092 -5.68359,-4.88281 C 147.03009,457.05954 134.81119,441.26812 123,426 c -1.14702,-1.45164 -2.29553,-2.90211 -3.44531,-4.35156 C 112.22422,412.37623 105.43745,402.92263 99,393 97.334428,390.54092 95.667749,388.0826 94,385.625 88.659213,377.60964 83.789963,369.35351 79,361 l -2.207031,-3.82422 C 67.313974,340.55765 58.321894,323.68794 51,306 l -1.25,-2.94141 C 48.477122,300.04807 47.237035,297.02543 46,294 l -1.804688,-4.34375 C 39.224761,277.51031 34.952648,265.22184 30.905273,252.74072 30.11931,250.36121 29.286416,247.9973 28.445312,245.63672 14.24312,205.60189 7.2756855,161.54723 2.75,119.4375 L 2.2553711,114.86938 C -0.34989796,89.309171 -0.12328859,63.789255 -0.0625,38.125 -0.05689818,34.419272 -0.05284445,30.713543 -0.04882812,27.007812 -0.03790443,18.005194 -0.02124777,9.0026 0,0 Z"
     style="fill:#ffffff;fill-opacity:1"
     id="path6"
     sodipodi:nodetypes="ccccccccccccccccccccccccccccccccccccccccccccccccccsscsssssssscssscccsscsscccsscccssssssssssssssssssssccccccccccccccccccccccccccccccccccccc"
     transform="translate(61,413)" />
  <path
     d="M 0,0 3.4977646,0.00955963 C 6.3224954,0.0177364 9.1472131,0.03027489 11.971924,0.04370117 12.434273,29.606077 12.720635,59.165453 12.795798,88.731451 c 0.03903,13.727759 0.136276,27.450559 0.369241,41.176509 0.202847,11.96008 0.297825,23.91525 0.261694,35.87708 -0.01534,6.3402 0.02437,12.66954 0.193214,19.00773 0.656964,25.96116 0.656964,25.96116 -1.888612,38.29856 l -1.7594112,3.95237 c -2.9984245,2.24998 -2.9984245,2.24998 -6.6752624,3.44733 -6.9863292,0.95716 -13.5026904,0.18246 -20.4212784,-0.96663 -5.853531,-0.72085 -11.209788,0.13125 -16.965959,1.2068 l -3.351691,0.56251 c -39.977506,6.73213 -77.583283,20.28636 -112.585813,40.74999 -22.36904,13.65086 -43.55065,29.31665 -63.17968,46.67188 -2.82032,2.32812 -2.82032,2.32812 -6.82032,4.32812 l -1,3 c -3.4375,3.1875 -3.4375,3.1875 -7,6 h -2 l -1,3 h -2 l -1,3 h -2 v 2 h -2 v 2 c -1.65002,1.35387 -3.31743,2.68678 -5,4 l -1,2 h -2 l -1,3 c -1.9375,2.1875 -1.9375,2.1875 -4,4 h -2 l -2,4 c -2.5,2.75 -2.5,2.75 -5,5 h -2 l -2,4 c -2.39988,2.67537 -4.82197,5.28714 -7.3125,7.875 -3.62788,3.79327 -7.22652,7.55872 -10.54296,11.63281 l -2.14454,2.49219 h -2 l -2,4 c -1.66595,1.91276 -3.38064,3.78347 -5.125,5.625 -4.36023,4.66963 -8.42878,9.44407 -12.3164,14.51172 l -1.5586,1.86328 -2,1 -1,3 c -1.9375,2.1875 -1.9375,2.1875 -4,4 h -2 v 2 h -2 l -2,4 c -2.72047,3.65856 -5.78157,6.78158 -9,10 l -2.5,3 c -2.37545,2.85055 -4.77094,5.4864 -7.5,8 l -3,1 -2,4 -2,3 h -2 l -2,4 -3,1 -2,4 c -1.52234,1.70792 -3.10308,3.36446 -4.71875,4.98438 l -2.82421,2.83203 -2.95704,2.93359 -2.95703,2.98047 -2.82422,2.81641 -2.5957,2.58886 -2.12305,1.86426 h -2 v 2 h -2 v 2 h -2 v 2 l -2.6875,1.3125 c -3.61145,1.8398 -5.51845,3.7635 -8.3125,6.6875 -9.04927,8.47472 -18.98027,16.23909 -30,22 h -3 v 2 c -2.07866,1.1891 -4.21676,2.2748 -6.375,3.3125 l -3.89843,1.88672 -3.72657,1.80078 c -1.66772,0.87299 -3.33453,1.74771 -5,2.625 -13.72778,6.73147 -27.89948,9.63975 -43,11.375 -15.76426,1.3159 -32.29003,-0.75921 -47.52685,-4.97607 -11.80313,-3.6178 -22.75957,-7.88011 -33.47315,-14.02393 -1.74796,-0.96618 -3.49665,-1.93104 -5.24609,-2.89453 -8.96536,-5.01657 -17.60219,-10.05368 -25.67187,-16.46094 -1.97898,-1.67777 -1.97898,-1.67777 -4.08204,-2.64453 v -2 l -5,-2 -3,-2 v -2 l -4,-2 c -2.10872,-1.46409 -4.19032,-2.96768 -6.25,-4.5 l -3.26562,-2.40625 -2.48438,-2.09375 v -2 l -5,-2 c -2.30209,-1.83222 -4.54731,-3.7369 -6.75,-5.6875 -5.30255,-4.62808 -10.64959,-9.05687 -16.25,-13.3125 l -3.69531,-2.89062 c -19.19528,-14.91789 -39.38725,-27.53809 -61.30469,-38.10938 l -4.4375,-2.1875 c -6.38083,-2.53485 -12.90144,-4.17942 -19.5625,-5.8125 l -3.43359,-0.84766 c -3.18112,-0.75995 -6.36753,-1.47121 -9.56641,-2.15234 l -2.73828,-0.59375 c -13.8863,-2.6712 -28.18117,-3.17047 -42.1289,-0.88672 -3.73534,0.57288 -7.36051,0.63444 -11.13282,0.48047 2.70556,-10.82222 7.30967,-20.94791 12.40625,-30.82812 2.16233,-4.30346 3.86444,-8.67567 5.59375,-13.17188 0.864,-2.21266 1.73926,-4.42095 2.625,-6.625 l 1.22657,-3.10156 1.14843,-2.27344 h 2 l 1.25,-3.79687 c 1.99192,-5.92241 4.70349,-11.02239 7.75,-16.45313 l 1.61719,-2.92969 c 1.44781,-2.6147 2.90175,-5.2243 4.38281,-7.82031 l 1.55079,-2.81152 1.44921,-2.18848 h 2 c 0.73081,-1.97746 1.39422,-3.98072 2,-6 l 1,-2 h 2 l 2,-5 c 5.0119,-7.15126 11.08036,-13.59852 17,-20 l 2.4375,-2.6875 c 5.46667,-4.93333 11.72727,-9.5189 18.5625,-12.3125 6.04157,-0.67883 11.94958,-0.55587 18,0 4.86785,1.34802 8.49099,3.90545 12.57422,6.86719 5.20095,3.99595 9.98582,8.30677 14.42578,13.13281 v 2 l 4,2 c 5.15044,5.4678 9.47206,11.36746 13,18 l 2,2 v 3 h 2 c 1.40235,2.04688 1.40235,2.04688 2.9375,4.75 1.88692,3.30091 3.76481,6.18641 6.0625,9.25 1.68452,2.99002 3.35087,5.99033 5,9 l 1.8125,2.9375 1.1875,2.0625 v 2 h 2 c 2.625,4.3125 2.625,4.3125 5,9 v 3 h 2 c 1.1604,1.93499 2.22718,3.9264 3.25,5.9375 2.93898,5.61738 6.17985,10.81657 9.75,16.0625 1.3223,2.11892 2.63409,4.24442 3.9375,6.375 6.02149,9.82633 12.18658,19.37143 19.0625,28.625 l 2.1211,2.9375 c 4.7351,6.48228 9.81605,12.4407 15.30078,18.30078 2.20374,2.36068 4.34352,4.75484 6.45312,7.19922 4.8364,5.5135 9.9108,10.07922 15.67188,14.59375 2.45312,1.96875 2.45312,1.96875 5.57812,4.90625 9.07122,7.16919 19.49292,12.49981 30.47657,16.06641 l 3.39843,0.99609 3.21094,0.96484 c 10.69786,2.75705 21.82307,3.01143 32.78906,2.03516 11.71597,-1.88 21.87264,-5.86586 32.1875,-11.66797 5.1794,-3.16813 10.04187,-6.58202 14.8125,-10.33203 l 2.31641,-1.73828 c 6.97559,-5.27718 13.49983,-11.07796 19.68359,-17.26172 h 2 l 2,-4 c 1.90432,-1.90431 3.81162,-3.8058 5.73829,-5.6875 4.07738,-4.16893 7.62634,-8.75973 11.26171,-13.3125 l 2.99219,-3.65234 c 4.69328,-5.7642 9.22254,-11.4554 13.13281,-17.78516 l 2.875,-4.5625 h 2 l 2,-5 c 1.52231,-2.56594 3.08999,-5.10519 4.6875,-7.625 l 2.70704,-4.28906 c 1.55357,-2.43634 3.11178,-4.86974 4.67968,-7.29688 2.65385,-4.11029 5.06814,-8.07762 7.23828,-12.47656 l 1.6875,-3.3125 h 2 c 0.6824,-1.99469 1.34371,-3.99657 2,-6 1.52946,-3.43745 3.20672,-6.68243 5,-10 h 2 l 0.86719,-3.06641 c 1.21219,-4.2092 2.91707,-7.18054 5.25781,-10.87109 4.79569,-7.81012 8.85312,-15.83404 12.875,-24.0625 2.15901,-4.33717 4.32999,-8.66833 6.5,-13 1.13561,-2.27074 2.27103,-4.54157 3.40625,-6.8125 l 40.09375,-80.1875 1.60547,-3.46094 1.39453,-2.53906 h 2 c 0.71472,-1.98334 1.37092,-3.98786 2,-6 0.95964,-2.14353 1.96012,-4.26923 3,-6.375 l 1.5625,-3.21094 1.4375,-2.41406 h 2 c 0.69644,-1.98983 1.35488,-3.99295 2,-6 2,-4.375 2,-4.375 4,-8 h 2 c 0.70906,-1.98537 1.36695,-3.98911 2,-6 1.5,-3.375 1.5,-3.375 3,-6 h 2 c 0.67202,-1.99821 1.33751,-3.99861 2,-6 1.22728,-2.04015 2.52273,-4.04047 3.875,-6 l 2.05469,-3 2.07031,-3 2.13282,-3.375 1.86718,-2.625 h 2 l 1,-4 3,-4 h 2 l 2,-5 c 2.5,-3.8125 2.5,-3.8125 5,-7 h 2 l 1,-4 c 2.28273,-2.73927 4.59368,-5.374915 7,-7.999999 3.47065,-3.909785 6.86027,-7.813684 10,-12 h 2 l 2,-4 c 6.291,-7.128158 13.58465,-13.096716 21,-19 1.89749,-1.560497 3.79334,-3.12298 5.6875,-4.6875 12.19226,-9.942696 25.33777,-19.020316 39.3125,-26.3125 h 2 v -2 c 2.379,-0.985584 4.76354,-1.959557 7.17188,-2.871094 3.18143,-1.218314 3.18143,-1.218314 7.45312,-3.503906 11.175529,-5.692861 23.253195,-9.524638 35.375004,-12.6249998 l 4.675781,-1.2148438 c 10.803333,-2.6386759 21.618659,-4.5861386 32.636719,-6.0976562 l 3.58374,-0.5195313 C -16.728717,0.13384324 -8.4566623,-0.04417394 0,0 Z"
     transform="translate(2499.0281,158.9563)"
     style="fill:#eeaf00;fill-opacity:1"
     id="path7"
     sodipodi:nodetypes="ccccscccccccccccccccccccccccccccccccccccccccccccccccsccccccccscccccccccccccccccccccccccccccccccccccccccccccccccccccccccccccccccccccccccccccccccccccccccccccccccccccccccccccccccccccccccccccccccccccccccccccccccccccccccccccccccccccccccccc" />
  <path
     d="M 0,0 4.5,-0.03710938 C 12.98499,-0.04835274 20.94396,0.46606925 29.25,2.1875 l 4.40625,0.7890625 C 45.472524,5.3894275 56.213265,9.3682723 67.25,14.1875 l 4.621094,2.015625 C 88.714,23.835771 103.7213,34.591812 117.25,47.1875 c 2.37278,2.631629 4.70397,5.301152 7,8 l 2.08594,2.203125 C 136.84362,68.525086 144.42157,81.561263 151.25,95.1875 l 1.42969,2.789062 c 7.71226,15.855648 12.03361,34.799868 14.2539,52.242188 1.68672,21.15683 -0.78367,41.37161 -6.18359,61.89453 -5.44592,18.42251 -12.95029,35.76614 -24.6875,51.13672 -1.59855,1.98371 -3.20233,3.96322 -4.8125,5.9375 -1.33632,1.76858 -2.67,3.53916 -4,5.3125 l -3,3.6875 h -2 l -2,4 c -12.84735,14.30728 -30.0976,25.14491 -47,34 -17.705569,8.82901 -36.51928,13.88966 -56.097656,16.55859 -18.01940615,1.62247 -35.359027,0.94795 -52.902344,-3.55859 l -5.027344,-1.20313 c -9.02702,-2.24079 -17.572712,-4.79898 -25.972656,-8.79687 l -3.722656,-1.74219 C -85.679777,310.09987 -99.193248,301.48699 -111.75,290.1875 l -3.05078,-2.64844 C -127.47115,276.33129 -137.3009,263.81644 -145.75,249.1875 l -2.1875,-3.78516 c -9.60521,-17.30028 -15.11356,-36.10438 -18.37476,-55.57104 -2.27204,-18.9126 -1.90749,-40.08757 2.56226,-58.6438 l 1.21875,-5.09375 C -157.10111,104.86614 -147.31769,85.985882 -134.875,68 c 4.91051,-6.74245 10.34321,-12.812209 16.125,-18.8125 l 2.25,-2.476563 C -104.42566,33.840024 -89.422675,24.302952 -73.703125,16.527344 -49.893521,5.2797467 -26.315843,0.01130406 0,0 Z"
     transform="translate(661.75,212.8125)"
     style="fill:#1a1a1a;fill-opacity:1"
     id="path9"
     sodipodi:nodetypes="ccccccccccccccccccccccccccccccccccccc" />
  <path
     d="m 0,0 c 6.6504364,2.2781552 12.843622,5.2026416 19.09375,8.4023438 l 4.042969,1.9570312 c 8.169275,4.08843 15.665476,8.716572 23.019531,14.105469 l 2.342773,1.713135 c 5.337729,4.017167 9.948896,8.423834 14.594727,13.224365 l 2.664062,2.644531 c 7.532495,7.595475 14.587952,15.313693 20.335938,24.355469 l 2.144531,3.359375 c 8.541853,13.795019 15.243359,28.078895 19.855469,43.640621 l 1.08594,3.60157 c 4.90526,17.22373 7.00466,34.53153 5.91406,52.39843 -2.3337,24.8204 -9.29125,47.34184 -20.261719,69.58594 -9.676385,17.96298 -23.756598,33.97296 -39.144531,47.3125 -18.710579,15.16008 -39.82695,25.55818 -62.59375,33.10156 -17.695404,5.50714 -36.249392,7.07671 -54.687988,6.22754 -20.597121,-1.41504 -40.831362,-6.78624 -59.577642,-15.38769 -14.42594,-7.10735 -27.74073,-15.78227 -39.51562,-26.77344 -1.97262,-1.83718 -4.02838,-3.58416 -6.09375,-5.31641 -9.8944,-8.67508 -18.08207,-18.67542 -25.125,-29.75 l -2.46094,-3.78906 c -11.59063,-18.652 -18.26623,-39.31863 -22.92578,-60.66406 -3.08907,-17.86545 -2.74333,-36.80345 0.40991,-54.62964 4.19787,-21.19916 12.40295,-41.339335 23.78931,-59.667236 10.97931,-17.136225 25.46191,-32.969432 41.75,-45.25 21.15604,-14.7756466 44.05219,-23.90367274 68.9375,-30.1250002 C -55.223443,-11.008202 -26.348475,-7.795547 0,0 Z"
     transform="translate(325.90625,220.59766)"
     style="fill:#1a1a1a"
     id="path10"
     sodipodi:nodetypes="ccccccccccccccccccccccccccc" />
  <path
     d="m 0,0 h 1 c 0.033297,27.083327 0.051788,54.166656 0.0625,81.25 l 0.00132,3.225348 C 1.1018734,180.52585 0.81883573,276.57511 0.5,372.625 l -0.0181022,5.4606 C 0.32717206,424.72376 0.1666418,471.36189 0,518 c -5.7916223,0.0591 -11.583165,0.094 -17.375,0.125 l -4.890625,0.0508 c -15.471717,0.0619 -30.54977,-1.25257 -45.609375,-4.86328 l -3.333496,-0.78735 c -23.849982,-5.81821 -47.936654,-15.52027 -68.896974,-28.43921 -2.35039,-1.63669 -4.62626,-3.33773 -6.89453,-5.08594 -1.83185,-1.31456 -3.66526,-2.62697 -5.5,-3.9375 C -163.38488,467.08127 -173.23356,458.3269 -183,449 l -2.71484,-2.58594 C -190.63491,441.62015 -194.89838,436.50905 -199,431 l -2.67969,-3.45703 c -5.68295,-7.4026 -11.00609,-14.91747 -16.00781,-22.79297 l -1.56714,-2.45459 C -221.42154,398.82881 -223.00141,395.99435 -224,392 h -2 c -1.03978,-2.31588 -2.03156,-4.65339 -3,-7 l -1.9375,-3.25 c -2.07363,-3.77023 -3.52436,-7.56384 -4.9375,-11.62109 -1.23721,-3.44101 -2.61085,-6.80898 -4,-10.19141 C -247.16627,341.66363 -251.91321,323.2133 -256,304 l -0.69775,-3.08789 c -2.63736,-11.9138 -3.4085,-23.37199 -3.11866,-35.54883 l 0.0663,-3.41489 c 0.11704,-5.74963 0.3032,-11.48351 0.59996,-17.22671 C -258.9383,238.9621 -258.85694,233.66925 -260,228 l -2.55981,-2.07886 C -265.83665,225.10038 -268.63332,224.96458 -272,225 l -4.1875,-1.4375 c -5.86968,-1.90574 -11.80627,-3.24403 -17.82422,-4.59766 L -298,218 -301.58203,217.25391 -304,216 c 0.31451,-4.12484 1.4657,-7.47993 3.22266,-11.19531 l 1.37109,-2.90332 1.46875,-3.02637 1.49609,-3.10449 c 4.21384,-8.59415 8.6226,-16.9517 15.44141,-23.77051 3.45327,0.69374 6.64314,1.53877 10,2.5625 26.89983,7.49324 53.92006,9.07466 81.76563,7.08203 4.11592,-0.41371 8.15689,-0.95336 12.23437,-1.64453 l 3.72656,-0.58984 C -157.59029,176.62021 -142.65226,171.12664 -128,165 l 5,-2 c 13.77878,-6.83777 13.77878,-6.83777 26.628906,-15.23828 2.831125,-2.10352 5.755975,-4.04489 8.683594,-6.01172 C -80.729121,136.9415 -74.367156,131.55648 -68,126 l 2.382813,-2.00781 c 3.305444,-2.80272 6.16568,-5.6321 8.992187,-8.92969 L -54,112 h 2 l 2,-4 h 2 l 2,-5 2,-3 h 2 l 2,-5 c 1.843885,-3.15164 3.866749,-6.022338 6,-9 h 2 l 1,-4 c 1.142497,-2.108349 2.33756,-4.188458 3.5625,-6.25 C -21.143809,64.902705 -15.314575,53.793173 -11,42 l 1.3945312,-3.765625 C -6.0383215,28.156055 -3.5783507,18.097454 -1.560791,7.6206055 -1.0688814,5.0747609 -0.53860445,2.5363763 0,0 Z"
     transform="translate(875,411)"
     style="fill:#ffffff;fill-opacity:1"
     id="path11"
     sodipodi:nodetypes="ccssssccccccccccccccccccccccccccccccccccccccccccccccccscccccccccccccccc" />
  <path
     d="m 0,0 c 3.1827204,0.92861454 6.1748818,2.0231138 9.2265625,3.3164063 l 2.8593755,1.1445312 c 9.669817,4.3252835 18.13974,10.9930805 26.140624,17.8554685 2.416639,2.602033 4.694518,5.296547 7,8 1.529497,1.431921 3.088285,2.833888 4.6875,4.1875 5.231149,4.599252 9.881313,9.6349 14.550782,14.796875 2.52266,2.754588 5.101967,5.393925 7.761718,8.015625 3.128489,3.100665 6.251945,6.206365 9.375,9.3125 l 2.5,2.47461 c 4.928127,4.90857 9.585516,9.94364 14.125,15.21289 l 2.999998,3 -3.44531,2.089844 c -7.372856,4.486487 -14.715453,8.98326 -21.929688,13.72266 -11.942101,7.70059 -24.397445,12.78597 -38,16.8125 -4.497344,1.27187 -4.497344,1.27187 -8.265625,2.77343 -36.5607166,13.43181 -76.884186,15.13878 -115.412597,14.69483 -18.53656,-0.34947 -36.92926,-1.78658 -55.32178,-4.09326 l -4.01928,-0.50293 -3.69165,-0.49707 -3.25147,-0.4375 -2.6626,-0.5625 -3,-2 c 4.84582,-6.57123 9.80032,-13.02829 14.9375,-19.375 4.77659,-5.9329 9.25696,-12.007894 13.64063,-18.234379 3.14129,-4.397815 6.4376,-8.662213 9.75781,-12.925781 4.15633,-5.405672 8.17001,-10.918201 12.19531,-16.421875 l 2.46875,-3.042969 h 2 l 2,-4 c 1.632603,-1.899147 3.270711,-3.794035 4.945315,-5.65625 2.253255,-2.570253 4.366917,-5.229438 6.492188,-7.90625 3.819275,-4.690225 7.898972,-8.563185 12.5625,-12.4375 1.543578,-1.435447 3.085112,-2.873094 4.625,-4.3125 7.966378,-7.178359 16.396158,-13.65692 26.375,-17.6874998 1.716218,-0.838211 3.425499,-1.6908912 5.125,-2.5625 C -28.00138,-1.5696224 -13.939804,-2.5253267 0,0 Z"
     transform="translate(1295.7734,675.68359)"
     style="fill:#eeaf00;fill-opacity:1"
     id="path19"
     sodipodi:nodetypes="ccccccccccccccccccccccccccccccccccccc" />
  <path
     d="M 0,0 H 2 C 1.4740718,5.8548183 -0.28769467,10.369476 -2.75,15.6875 -5.5181224,21.704468 -8.1620555,27.746307 -10.692383,33.865479 -12.895843,39.147448 -15.196645,44.385997 -17.5,49.625 l -1.394531,3.195312 c -2.144268,4.880475 -4.33762,9.704722 -6.761719,14.453125 -2.363887,4.562417 -2.363887,4.562417 -3.886719,8.867188 -1.568101,4.153578 -3.539445,7.773165 -5.769531,11.609375 -2.715585,4.739134 -5.354778,9.466111 -7.75,14.375 C -48.774836,113.7223 -55.428608,124.52948 -63,135 l -2.253906,3.12891 c -4.285135,5.83523 -8.786021,11.32676 -13.707031,16.63671 -1.698515,1.86121 -3.290226,3.81919 -4.851563,5.79688 -5.274188,5.68785 -11.337269,10.3507 -18.16406,14.05078 -6.24631,2.91666 -12.26259,5.16399 -19.1875,5.72266 -8.21615,0.0719 -15.70642,-0.0948 -23.48828,-2.87891 C -161.43688,170.15175 -174.85129,160.58213 -188,148 c -1.33889,-1.32775 -2.67452,-2.65886 -4,-4 l 3,-1.5 c 3.83787,-2.39867 6.66157,-5.05302 9.78125,-8.30469 2.37362,-2.34855 4.8639,-4.41944 7.46875,-6.50781 5.19808,-4.17433 10.0973,-8.60896 14.98828,-13.13672 6.84651,-6.32357 13.98145,-12.32516 21.0625,-18.382811 2.37604,-2.034814 4.74873,-4.073549 7.11719,-6.117188 C -112.12345,75.864962 -95.276252,62.177452 -78,49 l 3.648438,-2.8125 C -52.426433,29.465698 -28.965383,13.78663 -4,2 Z"
     transform="translate(1622,586)"
     style="fill:#eeaf00;fill-opacity:1"
     id="path22"
     sodipodi:nodetypes="ccccccccccccccccccccccccccccc" />
  <path
     d="m 0,0 c 7.9236642,2.3247732 15.12438,5.1399177 21.765625,10.089844 5.459645,4.220694 10.026685,8.62304 13.875,14.375 3.157756,5.31246 5.317384,10.72981 7.125,16.625 l 1.25,3.75 c 1.343873,7.615278 1.386102,15.219903 0.179687,22.863281 -1.470939,6.71213 -3.245389,12.868542 -6.894531,18.746094 -4.52658,6.774474 -9.50571,12.526077 -15.960937,17.515621 -6.103403,4.19553 -12.4661057,7.06162 -19.5351565,9.25 -7.0515522,1.52761 -13.8738335,1.3812 -21.0390625,0.875 l -2.957031,-0.18359 c -7.392462,-0.89774 -13.778954,-4.17809 -20.304688,-7.62891 -4.965863,-2.90583 -9.026158,-5.77443 -12.738281,-10.187496 -3.214773,-4.546091 -6.15378,-9.216294 -9,-14 l -1.652344,-2.53125 c -2.775695,-5.084752 -3.51022,-10.792169 -4.347656,-16.46875 -0.625093,-6.788647 -0.594521,-13.165256 0.808594,-19.855469 2.803528,-9.361262 7.240163,-17.413656 13.191406,-25.144531 4.09824,-4.740822 8.438631,-8.08351 13.839844,-11.2539065 C -36.769224,3.8833113 -31.323929,1.41671 -25.234375,-0.41015625 -16.651307,-1.2684631 -8.4967697,-1.8263352 0,0 Z"
     transform="translate(289.23437,321.91016)"
     style="fill:#ffffff;fill-opacity:1"
     id="path23"
     sodipodi:nodetypes="ccccccccccccccccccccc" />
  <path
     d="m 0,0 c 6.4589941,2.2407023 12.316337,4.9714773 17.738281,9.1757813 2.50871,2.2045097 4.888091,4.4796977 7.234375,6.8554687 l 3.1875,3.1875 c 4.973903,6.742402 8.568202,14.133705 11.25,22.0625 1.13438,9.579206 1.561435,19.519945 -0.5,29 -2.415265,8.110799 -6.047005,15.752391 -11.007812,22.613281 -4.394609,5.190049 -9.180548,9.127739 -15.019531,12.601559 -6.4414881,3.398 -12.76025498,6.10518 -19.9101567,7.53516 -9.0488913,0.48935 -18.2108513,0.93345 -27.0000003,-1.5625 -7.99052,-2.90658 -14.995835,-7.22131 -21.8125,-12.25 -6.485168,-6.485168 -10.809589,-13.990646 -14.925781,-22.132813 -2.153388,-5.213465 -3.192339,-10.09144 -3.597656,-15.71875 -0.07085,-8.997937 0.01181,-17.432268 2.878906,-26.023437 3.503506,-7.965076 8.305995,-15.286376 14.207031,-21.6875 5.144322,-4.7556848 11.027462,-8.444103 17.25,-11.625 C -27.330751,-2.7075039 -13.067083,-3.7186955 0,0 Z"
     transform="translate(676.02734,322.96875)"
     style="fill:#f9f9f9;fill-opacity:1"
     id="path24"
     sodipodi:nodetypes="ccccccccccccccccc" />
  <path
     d="m 0,0 c 2.875,0.08984375 2.875,0.08984375 5.6875,0.5 4.8125,2.0625 4.8125,2.0625 9,5 3.575104,3.707515 6.644994,7.417466 9,12 0.745944,4.412059 0.612498,8.573544 0,13 -1.031719,2.961641 -2.246073,5.248572 -4.011719,7.835937 -3.498879,3.80821 -7.38548,5.832774 -11.988281,8.164063 -3,1 -3,1 -7.6875,1.3125 -5.3125,-0.3125 -5.3125,-0.3125 -9.625,-2 -4.528179,-2.839706 -7.506281,-5.813513 -10.792969,-9.984375 L -22.3125,32.5 c -0.801755,-5.385583 -0.628207,-10.597421 0,-16 2.125,-4.6875 2.125,-4.6875 5,-8 2.752926,-2.6357799 5.536432,-4.6873609 8.6875,-6.8125 C -5.3125,0.5 -5.3125,0.5 0,0 Z"
     transform="translate(733.3125,280.5)"
     style="fill:#eeaf00;fill-opacity:1"
     id="path30"
     sodipodi:nodetypes="ccccccccccccccc" />
  <path
     d="M0 0 C3.89682838 -0.0242793 7.58663374 0.06430094 11.44921875 0.6015625 C15.27001501 2.1575911 17.24776897 3.81320302 20.44921875 6.6015625 C23.38671875 9.6640625 23.38671875 9.6640625 25.44921875 12.6015625 C27.15103068 16.85609232 27.78833361 18.97631738 27.88671875 23.3515625 C27.82421875 26.53125 27.82421875 26.53125 27.44921875 29.6015625 C25.38671875 34.4765625 25.38671875 34.4765625 22.44921875 38.6015625 C18.94921875 42.0390625 18.94921875 42.0390625 15.44921875 44.6015625 C10.44921875 46.6015625 10.44921875 46.6015625 7.6171875 46.9375 C2.64767712 47.0026312 -1.12510645 46.7496233 -5.86328125 45.1015625 C-10.42653398 42.00783184 -13.18280718 38.97992878 -16.55078125 34.6015625 C-18.55078125 29.6015625 -18.55078125 29.6015625 -18.92578125 24.3515625 C-18.84185547 20.20003382 -18.26923738 17.78821354 -16.86328125 13.7265625 C-14.69375681 9.85659998 -12.93123574 7.41860791 -9.55078125 4.6015625 C-6.28956772 2.07447496 -4.09809662 0.694287 0 0 Z "
     transform="translate(759.55078125,353.3984375)"
     style="fill:#eeaf00;fill-opacity:1"
     id="path31" />
  <path
     d="M0 0 C3.71672337 1.17687117 6.83477288 2.7227798 10 5 C13.5625 9.125 13.5625 9.125 16 13 C17.56617714 17.69853143 17.38079069 22.32716945 17.34765625 27.25 C17 31 17 31 14.8125 35.6875 C11.39514994 39.71237896 8.46101125 42.1818337 3.875 44.75 C-0.25379417 46.08186909 -3.95815515 46.49004504 -8.296875 46.3359375 C-11 46 -11 46 -15.1875 44.5625 C-20.01409226 41.318397 -23.56745128 37.68074825 -27 33 C-28.79501374 29.40997251 -29.0239437 26.76740406 -29.4375 22.75 C-29.05984194 18.64971254 -28.59449315 16.43717252 -26.9375 12.8125 C-25.07170537 9.43304662 -23.36756006 7.34413636 -20.625 4.5 C-17 2 -17 2 -13.6875 0.625 C-8.91831693 -0.18333611 -4.83874993 -0.40808734 0 0 Z "
     transform="translate(280,462)"
     style="fill:#eeaf00;fill-opacity:1"
     id="path32" />
  <path
     d="M0 0 C3.60848671 -0.05650031 7.08810989 -0.04485185 10.6796875 0.31640625 C15.24467946 2.14240304 18.21584496 4.0362478 21.80859375 7.34375 C23.6796875 9.31640625 23.6796875 9.31640625 26.1796875 13.00390625 C27.46953288 16.71221173 28.07768793 19.33734827 28.3046875 23.19140625 C28.18586189 26.54822973 27.80187754 29.01469727 26.5390625 32.1328125 C24.32524707 36.04194448 21.88784549 39.10381937 18.7421875 42.31640625 C15.6796875 44.31640625 15.6796875 44.31640625 12.3671875 45.62890625 C7.98354305 46.44619589 4.13310526 46.62567137 -0.3203125 46.31640625 C-4.65222794 44.9720187 -7.43009486 43.23406948 -11.0703125 40.50390625 C-14.3203125 37.31640625 -14.3203125 37.31640625 -16.1953125 34.25390625 C-17.75184729 30.18962097 -18.31921041 26.33161514 -18.6328125 22.00390625 C-18.3203125 17.31640625 -18.3203125 17.31640625 -16.6328125 13.06640625 C-14.43543661 9.50309399 -12.48441878 7.02849735 -9.3203125 4.31640625 C-8.5159375 3.55328125 -7.7115625 2.79015625 -6.8828125 2.00390625 C-3.3203125 0.31640625 -3.3203125 0.31640625 0 0 Z "
     transform="translate(730.3203125,427.68359375)"
     style="fill:#eeaf00;fill-opacity:1"
     id="path33" />
  <path
     d="m 0,0 c 3.6295172,1.2490468 6.8104795,2.8665415 10,5 3.514747,3.5775104 5.761741,6.523482 8,11 0.300781,3.460937 0.300781,3.460937 0.3125,7.375 l 0.05078,3.898437 C 18,31 18,31 16.585937,34.3125 14.874947,37.211912 13.356073,39.580249 11,42 c -4.0254277,2.264303 -7.518723,3.879681 -12,5 -3.6875,0.3125 -3.6875,0.3125 -8,0 -4.625,-1.5625 -4.625,-1.5625 -9,-4 -3.099143,-3.099143 -5.430954,-6.021568 -7.628906,-9.800781 C -27,30 -27,30 -27.503906,26.667969 -27.565103,23.032886 -27.485601,19.60559 -27,16 c 1.505355,-3.940152 3.078647,-5.719884 6,-9 2.916234,-2.3773098 5.701315,-4.1150373 9,-6 4.3796181,-1.09490451 7.4902626,-1.38654892 12,-1 z"
     transform="translate(205,427)"
     style="fill:#eeaf00;fill-opacity:1"
     id="path34"
     sodipodi:nodetypes="cccccccccccccccc" />
  <path
     d="M0 0 C4.33875446 -0.14537064 8.20704966 -0.14914088 12.37109375 1.1796875 C16.31459668 3.02987233 19.39273503 5.13492253 22.46875 8.2109375 C23.149375 9.2215625 23.83 10.2321875 24.53125 11.2734375 C25.129375 12.1603125 25.7275 13.0471875 26.34375 13.9609375 C27.53125 17.2734375 27.53125 17.2734375 28.03125 22.5234375 C27.93851432 25.61743704 27.5923013 28.08924 26.6171875 31.03125 C24.79011802 34.98007758 22.69557206 38.10554322 19.65625 41.2109375 C16.2611279 43.45171808 13.42030931 45.04190205 9.53125 46.2734375 C4.65625 46.7109375 4.65625 46.7109375 -0.46875 46.2734375 C-5.15625 44.7734375 -5.15625 44.7734375 -9.46875 42.2734375 C-12.21899249 39.75937996 -14.19689987 37.28711625 -16.46875 34.2734375 C-18.16417438 30.03487655 -18.80744671 27.93909443 -18.90625 23.5859375 C-18.83449312 20.34491833 -18.56206059 17.59730679 -17.6640625 14.48046875 C-16.48204892 11.78629296 -15.27130857 9.60105326 -13.46875 7.2734375 C-9.5874852 3.98774609 -5.14774403 0.57016152 0 0 Z "
     transform="translate(657.46875,461.7265625)"
     style="fill:#eeaf00;fill-opacity:1"
     id="path35" />
  <path
     d="M0 0 C4.96951038 -0.0651312 8.74229395 0.1878767 13.48046875 1.8359375 C18.04372148 4.92966816 20.79999468 7.95757122 24.16796875 12.3359375 C25.86978068 16.59046732 26.50708361 18.71069238 26.60546875 23.0859375 C26.5390625 26.265625 26.5390625 26.265625 26.16796875 29.3359375 C24.16796875 34.2109375 24.16796875 34.2109375 21.16796875 38.3359375 C16.85960329 42.03843907 13.44960413 44.22328335 8.16796875 46.3359375 C3.48046875 46.7734375 3.48046875 46.7734375 -1.83203125 46.3359375 C-5.50818642 45.12674696 -8.64524762 43.52822486 -11.83203125 41.3359375 C-15.33203125 37.8359375 -15.33203125 37.8359375 -17.83203125 34.3359375 C-19.59943846 29.91741947 -20.17612086 27.61153601 -20.26953125 23.0234375 C-20.20703125 19.5625 -20.20703125 19.5625 -19.83203125 16.3359375 C-17.76953125 11.8984375 -17.76953125 11.8984375 -14.83203125 8.3359375 C-11.33203125 4.9609375 -11.33203125 4.9609375 -7.83203125 2.3359375 C-2.83203125 0.3359375 -2.83203125 0.3359375 0 0 Z "
     transform="translate(169.83203125,353.6640625)"
     style="fill:#eeaf00;fill-opacity:1"
     id="path36" />
  <path
     d="m 0,0 c 3.8498328,0.09289141 6.1634994,0.54550725 9.875,1.875 4.607434,3.0212685 8.447786,6.1154319 11.8125,10.5 1.5625,3.875 1.5625,3.875 2,8 -0.183775,4.900663 -0.873351,9.393893 -1.875,14.1875 l -2.125,3.8125 c -4.289526,3.405224 -8.791484,6.263828 -14,8 -4.0185988,0.30154 -7.9811852,0.29848 -12,0 -3.4375,-1.25 -3.4375,-1.25 -6,-3 l -2.5625,-1.5625 c -2.867066,-2.867066 -4.773312,-5.914733 -6.484375,-9.585938 -1.034958,-3.09639 -1.400081,-5.716572 -1.515625,-8.976562 0.193703,-3.879019 0.763148,-6.451862 2.0625,-10.1875 3.093731,-4.5632527 6.121634,-7.3195259 10.5,-10.6875 5,-2 5,-2 10.3125,-2.375 z"
     transform="translate(661.3125,248.625)"
     style="fill:#eeaf00;fill-opacity:1"
     id="path37"
     sodipodi:nodetypes="ccccccccccccccc" />
  <path
     d="M0 0 C5.1875 0.3125 5.1875 0.3125 9.375 1.375 C13.1875 3.3125 13.1875 3.3125 17 6.625 C19.87379298 9.94958404 21.52925896 12.30750849 23.1875 16.3125 C23.90704421 21.38277665 23.85011483 26.23601541 23.1875 31.3125 C21.62025761 35.10522658 19.94738702 37.13602626 17.1875 40.3125 C14.7389902 42.69979705 12.67920908 44.07264191 9.625 45.5625 C4.43034918 46.69587836 -0.52432315 46.86219207 -5.8125 46.3125 C-10.1875 44.75 -10.1875 44.75 -13.8125 42.3125 C-17.1875 38.875 -17.1875 38.875 -19.8125 35.3125 C-21.63715526 30.75086184 -22.16057338 28.27117335 -22.25 23.5 C-22.1875 19.76171875 -22.1875 19.76171875 -21.8125 16.3125 C-19.75 11.8125 -19.75 11.8125 -16.8125 8.3125 C-13.3125 4.9375 -13.3125 4.9375 -9.8125 2.3125 C-4.8125 0.3125 -4.8125 0.3125 0 0 Z "
     transform="translate(273.8125,248.6875)"
     style="fill:#eeaf00;fill-opacity:1"
     id="path38" />
  <path
     d="M0 0 C5.48430159 -0.16441161 9.86720109 0.18904509 15.0859375 1.953125 C19.49673 5.04841798 22.33710273 8.19569458 25.6484375 12.453125 C27.14031218 16.92874905 26.97018666 21.24253164 26.921875 25.93359375 C26.6484375 29.453125 26.6484375 29.453125 25.0859375 33.953125 C22.32858407 37.91240172 19.52934748 40.59350712 15.6484375 43.453125 C11.13309922 45.25926031 8.62252855 45.82714924 3.8984375 45.953125 C0.1875 45.9140625 0.1875 45.9140625 -3.3515625 45.453125 C-7.04317965 43.8398982 -9.25139542 42.12568282 -12.3515625 39.453125 C-12.3515625 38.793125 -12.3515625 38.133125 -12.3515625 37.453125 C-13.0115625 37.453125 -13.6715625 37.453125 -14.3515625 37.453125 C-16.07239501 34.36574902 -17.32387506 31.79672781 -18.3515625 28.453125 C-18.85482673 24.57312013 -18.67484659 21.42490097 -18.3515625 17.453125 C-17.16980959 13.78969098 -15.73354365 11.0473179 -13.6640625 7.828125 C-9.578702 3.63234935 -5.94827457 0.80419563 0 0 Z "
     transform="translate(196.3515625,281.546875)"
     style="fill:#eeaf00;fill-opacity:1"
     id="path39" />
  <path
     d="M0 0 C0.33 0 0.66 0 1 0 C1.1537315 33.8824946 1.30176922 67.76500989 1.4429636 101.64755917 C1.50865129 117.37857805 1.57622676 133.10958466 1.64819336 148.84057617 C1.71088929 162.54615081 1.7700973 176.25173523 1.82505554 189.95734316 C1.85429898 197.21935328 1.88533057 204.48134613 1.92053413 211.74333 C1.95357107 218.56971298 1.98196681 225.39609907 2.00670624 232.22251701 C2.01665139 234.7360814 2.02833446 237.24963957 2.04183006 239.76318741 C2.05991499 243.17850575 2.07191155 246.59379089 2.08229065 250.00914001 C2.08909444 251.01787373 2.09589823 252.02660745 2.10290819 253.06590885 C2.10670882 255.37752397 2.05934088 257.68914354 2 260 C1.67 260.33 1.34 260.66 1 261 C0.88937353 264.39992585 0.84501668 267.77997073 0.84178162 271.18067932 C0.83684364 272.26367512 0.83190566 273.34667092 0.82681805 274.46248478 C0.8113585 278.12155397 0.80305966 281.7806055 0.79467773 285.43969727 C0.78510585 288.05065061 0.77509619 290.66160238 0.76467896 293.27255249 C0.73754911 300.38589278 0.71658344 307.49923975 0.69667697 314.61260343 C0.67486706 322.03715321 0.64745403 329.46168219 0.62062073 336.88621521 C0.57062606 350.95693435 0.52571245 365.02766501 0.48259836 379.09840673 C0.43328375 395.11264929 0.37834427 411.12687098 0.32291877 427.14109337 C0.20899477 460.09404279 0.10217855 493.04701222 0 526 C1.65 526 3.3 526 5 526 C5 526.33 5 526.66 5 527 C3.02 527 1.04 527 -1 527 C-1.03102733 478.72916995 -1.05111179 430.45833867 -1.0625 382.1875 C-1.0629343 380.39939974 -1.06336861 378.61129948 -1.06381607 376.76901436 C-1.08674109 279.7615238 -1.01618621 182.75626303 -0.5 85.75 C-0.49402628 84.62360343 -0.48805257 83.49720687 -0.48189783 82.33667707 C-0.33606459 54.89102588 -0.17766302 27.44546513 0 0 Z "
     transform="translate(876,402)"
     style="fill:#ffffff"
     id="path40" />
  <path
     d="m 0,0 c 3.8498328,0.09289141 6.1634994,0.54550725 9.875,1.875 4.607434,3.0212685 8.447786,6.1154319 11.8125,10.5 1.5625,3.875 1.5625,3.875 2,8 -0.183775,4.900663 -0.873351,9.393893 -1.875,14.1875 l -2.125,3.8125 c -4.289526,3.405224 -8.791484,6.263828 -14,8 -4.0185988,0.30154 -7.9811852,0.29848 -12,0 -3.4375,-1.25 -3.4375,-1.25 -6,-3 l -2.5625,-1.5625 c -2.867066,-2.867066 -4.773312,-5.914733 -6.484375,-9.585938 -1.034958,-3.09639 -1.400081,-5.716572 -1.515625,-8.976562 0.193703,-3.879019 0.763148,-6.451862 2.0625,-10.1875 3.093731,-4.5632527 6.121634,-7.3195259 10.5,-10.6875 5,-2 5,-2 10.3125,-2.375 z m -5.3125,2.375 c -3.4440441,2.5830331 -6.787315,5.1365197 -10,8 -2.386538,4.773075 -3.784885,9.063962 -4.375,14.375 0.249947,3.932755 0.249947,3.932755 2.25,8.5625 l 2.125,4.0625 h 2 v 3 l 3,1 1,2 c 5.3509347,0.536341 10.6423811,0.40604 16,0 l 4.125,-1.4375 c 3.925285,-3.498624 6.355586,-6.943574 8.875,-11.5625 0.933189,-4.141025 1.138605,-7.541544 0.738281,-11.753906 C 20.00998,15.5476 20.00998,15.5476 18.6875,11.375 l -4,-1 -1,-4 c -3.343295,-1.1935131 -3.343295,-1.1935131 -7,-2 l -4,-2 c -4,-0.4166667 -4,-0.4166667 -8,0 z"
     transform="translate(661.3125,248.625)"
     style="fill:#eeaf00;fill-opacity:1"
     id="path41"
     sodipodi:nodetypes="cccccccccccccccccccccccccccccccccc" />
  <path
     d="m 0,0 c 2.875,0.08984375 2.875,0.08984375 5.6875,0.5 4.8125,2.0625 4.8125,2.0625 9,5 3.575104,3.707515 6.644994,7.417466 9,12 0.745944,4.412059 0.612498,8.573544 0,13 -1.031719,2.961641 -2.246073,5.248572 -4.011719,7.835937 -3.498879,3.80821 -7.38548,5.832774 -11.988281,8.164063 -3,1 -3,1 -7.6875,1.3125 -5.3125,-0.3125 -5.3125,-0.3125 -9.625,-2 -4.528179,-2.839706 -7.506281,-5.813513 -10.792969,-9.984375 L -22.3125,32.5 c -0.801755,-5.385583 -0.628207,-10.597421 0,-16 2.125,-4.6875 2.125,-4.6875 5,-8 2.752926,-2.6357799 5.536432,-4.6873609 8.6875,-6.8125 C -5.3125,0.5 -5.3125,0.5 0,0 Z m -6.375,3.5 -4.9375,2 c -3.164807,3.2124403 -3.164807,3.2124403 -5,7 l -1,5 h -2 l -2,5 c 0.06361,3.700544 0.06361,3.700544 1,7 l 3,1 c 0.701328,2.32315 1.364852,4.657891 2,7 l 3,4 h 3 v 2 c 5.1556274,0.81017 10.02838398,1.000338 15.25,1.0625 l 4.75,-1.0625 c 3.470252,-3.710234 3.470252,-3.710234 6,-8 L 19,33.3125 20.6875,31.5 c 0.859965,-4.299826 1.232338,-7.663033 1,-12 l -2,-5 h -2 l -1,-5 C 14.161365,7.6150484 14.161365,7.6150484 11,6.25 L 7.8632812,4.734375 C 2.5048725,2.6516479 -0.67252396,2.373585 -6.375,3.5 Z"
     transform="translate(733.3125,280.5)"
     style="fill:#eeaf00;fill-opacity:1"
     id="path42"
     sodipodi:nodetypes="ccccccccccccccccccccccccccccccccccccccc" />
  <path
     d="M0 0 C0.99 0.495 0.99 0.495 2 1 C2 1.99 2 2.98 2 4 C2.66 4 3.32 4 4 4 C5.62890625 5.984375 5.62890625 5.984375 7.5625 8.75 C9.78932083 11.93117261 12.01762426 15.0213259 14.4921875 18.015625 C15.29914063 19.00046875 16.10609375 19.9853125 16.9375 21 C17.68902344 21.886875 18.44054687 22.77375 19.21484375 23.6875 C19.80394531 24.780625 20.39304687 25.87375 21 27 C21.26983978 29.66101347 21.53261836 32.32318488 21.73942566 34.98983765 C22.1453039 39.67855491 22.89311635 44.31262042 23.63671875 48.95703125 C23.79660278 49.97060196 23.95648682 50.98417267 24.12121582 52.02845764 C24.63822788 55.29063988 25.16196199 58.55168104 25.6875 61.8125 C25.86640778 62.92715637 26.04531555 64.04181274 26.22964478 65.19024658 C31.35751715 97.04811572 37.14124757 128.64563958 47.8125 159.1875 C49 163 49 163 49 168 C48.34 167.67 47.68 167.34 47 167 C46.04217954 164.5938389 45.1819218 162.14837555 44.375 159.6875 C43.92898437 158.35074219 43.48296875 157.01398438 43.0234375 155.63671875 C42 152 42 152 42 148 C41.34 147.67 40.68 147.34 40 147 C39.67 145.68 39.34 144.36 39 143 C38.71382812 141.90171875 38.42765625 140.8034375 38.1328125 139.671875 C36.03351122 131.50250102 34.26850098 123.35190493 32.78125 115.05078125 C31.98274683 110.91054231 31.01264224 106.84276239 30 102.75 C28.04427618 94.6807731 26.81455589 86.58848419 25.7109375 78.36328125 C25.10691307 74.6561643 24.18362074 71.53660172 23 68 C22.63060541 65.40329287 22.32323743 62.79735752 22.0625 60.1875 C21.24118389 52.64573225 20.03849423 45.24236389 18.65625 37.78515625 C18.11418679 34.6586131 17.7142422 31.59532619 17.4375 28.4375 C17.293125 27.303125 17.14875 26.16875 17 25 C16.34 25 15.68 25 15 25 C14.01 24.01 13.02 23.02 12 22 C11.67 20.68 11.34 19.36 11 18 C10.34 17.67 9.68 17.34 9 17 C9 16.34 9 15.68 9 15 C8.34 15 7.68 15 7 15 C6.67 13.68 6.34 12.36 6 11 C5.34 11 4.68 11 4 11 C4 10.01 4 9.02 4 8 C3.34 8 2.68 8 2 8 C1.34 6.35 0.68 4.7 0 3 C0 2.01 0 1.02 0 0 Z "
     transform="translate(90,491)"
     style="fill:#ffffff;fill-opacity:1"
     id="path43" />
  <path
     d="m 0,0 c 3.6295172,1.2490468 6.8104795,2.8665415 10,5 3.514747,3.5775104 5.761741,6.523482 8,11 0.300781,3.460937 0.300781,3.460937 0.3125,7.375 l 0.05078,3.898437 C 18,31 18,31 16.585937,34.3125 14.874947,37.211912 13.356073,39.580249 11,42 c -4.0254277,2.264303 -7.518723,3.879681 -12,5 -3.6875,0.3125 -3.6875,0.3125 -8,0 -4.625,-1.5625 -4.625,-1.5625 -9,-4 -3.099143,-3.099143 -5.430954,-6.021568 -7.628906,-9.800781 C -27,30 -27,30 -27.503906,26.667969 -27.565103,23.032886 -27.485601,19.60559 -27,16 c 1.505355,-3.940152 3.078647,-5.719884 6,-9 2.916234,-2.3773098 5.701315,-4.1150373 9,-6 4.3796181,-1.09490451 7.4902626,-1.38654892 12,-1 z M -15.46875,5.7304687 -18,7 c -3.120006,3.576592 -4.215409,6.538522 -6,11 -0.544527,6.207606 0.681883,11.671522 2.148438,17.65625 L -21,38 h 2 v 2 c 5.012187,2.329608 9.3102059,3.872933 14.75,4.875 4.16783473,0.300477 4.16783473,0.300477 7.8125,-0.6875 L 6,43 v -2 l 5,-2 1,-5 h 2 v -3 h 2 C 16.164359,25.439197 16.250821,20.218271 15.125,14.75 L 14,12 H 12 V 10 C 10.006144,7.8824603 10.006144,7.8824603 7,6 2.5498891,4.1832503 2.5498891,4.1832503 -2,3 -7.2316795,3 -10.651647,3.8981567 -15.46875,5.7304687 Z"
     transform="translate(205,427)"
     style="fill:#eeaf00;fill-opacity:1"
     id="path44"
     sodipodi:nodetypes="ccccccccccccccccccccccccccccccccccccccc" />
  <text
     xml:space="preserve"
     id="text44"
     style="text-align:start;writing-mode:lr-tb;direction:ltr;white-space:pre;shape-inside:url(#rect44);display:inline;fill:#fbfbfa;fill-opacity:1" />
  <text
     xml:space="preserve"
     id="text45"
     style="text-align:start;writing-mode:lr-tb;direction:ltr;white-space:pre;shape-inside:url(#rect45);shape-padding:7.28649;display:inline;fill:#ffffff;fill-opacity:1"
     transform="matrix(1.7311053,0,0,2.5889418,-445.78326,-2333.8989)"><tspan
       x="532.12109"
       y="1484.0078"
       id="tspan2"><tspan
         style="font-size:192px;font-family:'Bangla MN';-inkscape-font-specification:'Bangla MN, Normal'"
         id="tspan1">ASIO DATA</tspan></tspan></text>
</svg>
